<svg id="Ebene_1" data-name="Ebene 1" xmlns="http://www.w3.org/2000/svg" xmlns:xlink="http://www.w3.org/1999/xlink" viewBox="0 0 225 144"><defs><style>.cls-1,.cls-15,.cls-34,.cls-51,.cls-52,.cls-53,.cls-57,.cls-58,.cls-59,.cls-6,.cls-60,.cls-62{fill:none;}.cls-2,.cls-61{fill:#fff;}.cls-3{clip-path:url(#clip-path);}.cls-4{clip-path:url(#clip-path-2);}.cls-5{fill:green;}.cls-57,.cls-6{stroke:green;}.cls-15,.cls-34,.cls-51,.cls-52,.cls-53,.cls-57,.cls-58,.cls-59,.cls-6{stroke-linejoin:round;}.cls-7{clip-path:url(#clip-path-3);}.cls-8{clip-path:url(#clip-path-4);}.cls-9{clip-path:url(#clip-path-5);}.cls-10{clip-path:url(#clip-path-6);}.cls-11{clip-path:url(#clip-path-7);}.cls-12{clip-path:url(#clip-path-8);}.cls-13{clip-path:url(#clip-path-10);}.cls-14{fill:red;}.cls-15,.cls-58{stroke:red;}.cls-16{clip-path:url(#clip-path-11);}.cls-17{clip-path:url(#clip-path-12);}.cls-18{clip-path:url(#clip-path-13);}.cls-19{clip-path:url(#clip-path-14);}.cls-20{clip-path:url(#clip-path-15);}.cls-21{clip-path:url(#clip-path-16);}.cls-22{clip-path:url(#clip-path-17);}.cls-23{clip-path:url(#clip-path-18);}.cls-24{clip-path:url(#clip-path-19);}.cls-25{clip-path:url(#clip-path-20);}.cls-26{clip-path:url(#clip-path-21);}.cls-27{clip-path:url(#clip-path-22);}.cls-28{clip-path:url(#clip-path-23);}.cls-29{clip-path:url(#clip-path-24);}.cls-30{clip-path:url(#clip-path-25);}.cls-31{clip-path:url(#clip-path-26);}.cls-32{clip-path:url(#clip-path-28);}.cls-33{fill:orange;}.cls-34,.cls-59{stroke:orange;}.cls-35{clip-path:url(#clip-path-29);}.cls-36{clip-path:url(#clip-path-30);}.cls-37{clip-path:url(#clip-path-31);}.cls-38{clip-path:url(#clip-path-32);}.cls-39{clip-path:url(#clip-path-33);}.cls-40{clip-path:url(#clip-path-34);}.cls-41{clip-path:url(#clip-path-35);}.cls-42{clip-path:url(#clip-path-36);}.cls-43{clip-path:url(#clip-path-37);}.cls-44{clip-path:url(#clip-path-38);}.cls-45{clip-path:url(#clip-path-39);}.cls-46{clip-path:url(#clip-path-40);}.cls-47{clip-path:url(#clip-path-41);}.cls-48{clip-path:url(#clip-path-42);}.cls-49{clip-path:url(#clip-path-43);}.cls-50{clip-path:url(#clip-path-44);}.cls-51,.cls-52,.cls-60{stroke:#000;}.cls-51,.cls-53,.cls-60{stroke-width:0.8px;}.cls-52{stroke-width:0.6px;}.cls-53{stroke:#b0b0b0;stroke-dasharray:0.8 1.32;}.cls-54{clip-path:url(#clip-path-46);}.cls-55{clip-path:url(#clip-path-48);}.cls-56{clip-path:url(#clip-path-50);}.cls-57,.cls-58,.cls-59,.cls-60{stroke-linecap:square;}.cls-57,.cls-58,.cls-59{stroke-width:0.5px;}.cls-60,.cls-62{stroke-miterlimit:10;}.cls-61,.cls-62{opacity:0.8;}.cls-62{stroke:#ccc;}</style><clipPath id="clip-path"><rect class="cls-1" x="37.22" y="6.48" width="181.3" height="107.48"/></clipPath><clipPath id="clip-path-2"><rect class="cls-1" x="39.59" y="5.5" width="11.73" height="11.73"/></clipPath><clipPath id="clip-path-3"><rect class="cls-1" x="57.25" y="70.81" width="11.73" height="11.73"/></clipPath><clipPath id="clip-path-4"><rect class="cls-1" x="64.86" y="79.87" width="11.73" height="11.73"/></clipPath><clipPath id="clip-path-5"><rect class="cls-1" x="72.46" y="82.09" width="11.73" height="11.73"/></clipPath><clipPath id="clip-path-6"><rect class="cls-1" x="75.17" y="87.59" width="11.73" height="11.73"/></clipPath><clipPath id="clip-path-7"><rect class="cls-1" x="76.91" y="82.63" width="11.73" height="11.73"/></clipPath><clipPath id="clip-path-8"><rect class="cls-1" x="82.52" y="83.96" width="11.73" height="11.73"/></clipPath><clipPath id="clip-path-10"><rect class="cls-1" x="109.47" y="25.04" width="11.73" height="11.73"/></clipPath><clipPath id="clip-path-11"><rect class="cls-1" x="121.58" y="38.9" width="11.73" height="11.73"/></clipPath><clipPath id="clip-path-12"><rect class="cls-1" x="130.41" y="48.65" width="11.73" height="11.73"/></clipPath><clipPath id="clip-path-13"><rect class="cls-1" x="143.1" y="61.86" width="11.73" height="11.73"/></clipPath><clipPath id="clip-path-14"><rect class="cls-1" x="152.24" y="71.08" width="11.73" height="11.73"/></clipPath><clipPath id="clip-path-15"><rect class="cls-1" x="159.39" y="77.64" width="11.73" height="11.73"/></clipPath><clipPath id="clip-path-16"><rect class="cls-1" x="165.25" y="82.74" width="11.73" height="11.73"/></clipPath><clipPath id="clip-path-17"><rect class="cls-1" x="170.23" y="86.56" width="11.73" height="11.73"/></clipPath><clipPath id="clip-path-18"><rect class="cls-1" x="174.56" y="89.61" width="11.73" height="11.73"/></clipPath><clipPath id="clip-path-19"><rect class="cls-1" x="178.38" y="92.1" width="11.73" height="11.73"/></clipPath><clipPath id="clip-path-20"><rect class="cls-1" x="181.8" y="94.15" width="11.73" height="11.73"/></clipPath><clipPath id="clip-path-21"><rect class="cls-1" x="184.9" y="95.85" width="11.73" height="11.73"/></clipPath><clipPath id="clip-path-22"><rect class="cls-1" x="187.73" y="97.26" width="11.73" height="11.73"/></clipPath><clipPath id="clip-path-23"><rect class="cls-1" x="192.76" y="99.46" width="11.73" height="11.73"/></clipPath><clipPath id="clip-path-24"><rect class="cls-1" x="197.12" y="101.06" width="11.73" height="11.73"/></clipPath><clipPath id="clip-path-25"><rect class="cls-1" x="200.97" y="102.29" width="11.73" height="11.73"/></clipPath><clipPath id="clip-path-26"><rect class="cls-1" x="204.41" y="103.2" width="11.73" height="11.73"/></clipPath><clipPath id="clip-path-28"><rect class="cls-1" x="100.02" y="25.04" width="11.73" height="11.73"/></clipPath><clipPath id="clip-path-29"><rect class="cls-1" x="108.5" y="38.9" width="11.73" height="11.73"/></clipPath><clipPath id="clip-path-30"><rect class="cls-1" x="114.56" y="48.65" width="11.73" height="11.73"/></clipPath><clipPath id="clip-path-31"><rect class="cls-1" x="123.25" y="61.86" width="11.73" height="11.73"/></clipPath><clipPath id="clip-path-32"><rect class="cls-1" x="129.52" y="71.08" width="11.73" height="11.73"/></clipPath><clipPath id="clip-path-33"><rect class="cls-1" x="134.44" y="77.65" width="11.73" height="11.73"/></clipPath><clipPath id="clip-path-34"><rect class="cls-1" x="138.49" y="82.75" width="11.73" height="11.73"/></clipPath><clipPath id="clip-path-35"><rect class="cls-1" x="141.92" y="86.57" width="11.73" height="11.73"/></clipPath><clipPath id="clip-path-36"><rect class="cls-1" x="144.91" y="89.61" width="11.73" height="11.73"/></clipPath><clipPath id="clip-path-37"><rect class="cls-1" x="147.55" y="92.11" width="11.73" height="11.73"/></clipPath><clipPath id="clip-path-38"><rect class="cls-1" x="149.91" y="94.16" width="11.73" height="11.73"/></clipPath><clipPath id="clip-path-39"><rect class="cls-1" x="152.06" y="95.84" width="11.73" height="11.73"/></clipPath><clipPath id="clip-path-40"><rect class="cls-1" x="154.02" y="97.25" width="11.73" height="11.73"/></clipPath><clipPath id="clip-path-41"><rect class="cls-1" x="157.5" y="99.47" width="11.73" height="11.73"/></clipPath><clipPath id="clip-path-42"><rect class="cls-1" x="160.51" y="101.06" width="11.73" height="11.73"/></clipPath><clipPath id="clip-path-43"><rect class="cls-1" x="163.17" y="102.29" width="11.73" height="11.73"/></clipPath><clipPath id="clip-path-44"><rect class="cls-1" x="165.55" y="103.2" width="11.73" height="11.73"/></clipPath><clipPath id="clip-path-46"><rect class="cls-1" x="18.62" y="106.61" width="11.82" height="7.12"/></clipPath><clipPath id="clip-path-48"><rect class="cls-1" x="18.62" y="69.99" width="11.82" height="7.12"/></clipPath><clipPath id="clip-path-50"><rect class="cls-1" x="18.62" y="33.42" width="11.82" height="7.12"/></clipPath></defs><rect class="cls-2" width="225" height="144"/><rect class="cls-2" x="37.22" y="6.48" width="181.3" height="107.48"/><g class="cls-3"><g class="cls-4"><path class="cls-5" d="M44.59,10.5l1.73,1.73m-1.73,0,1.73-1.73"/><path class="cls-6" d="M44.59,10.5l1.73,1.73m-1.73,0,1.73-1.73"/></g><g class="cls-7"><path class="cls-5" d="M62.25,75.81,64,77.54m-1.73,0L64,75.81"/><path class="cls-6" d="M62.25,75.81,64,77.54m-1.73,0L64,75.81"/></g><g class="cls-8"><path class="cls-5" d="M69.86,84.87l1.73,1.73m-1.73,0,1.73-1.73"/><path class="cls-6" d="M69.86,84.87l1.73,1.73m-1.73,0,1.73-1.73"/></g><g class="cls-9"><path class="cls-5" d="M77.46,87.09l1.74,1.73m-1.74,0,1.74-1.73"/><path class="cls-6" d="M77.46,87.09l1.74,1.73m-1.74,0,1.74-1.73"/></g><g class="cls-10"><path class="cls-5" d="M80.17,92.59l1.73,1.73m-1.73,0,1.73-1.73"/><path class="cls-6" d="M80.17,92.59l1.73,1.73m-1.73,0,1.73-1.73"/></g><g class="cls-11"><path class="cls-5" d="M81.91,87.63l1.73,1.73m-1.73,0,1.73-1.73"/><path class="cls-6" d="M81.91,87.63l1.73,1.73m-1.73,0,1.73-1.73"/></g><g class="cls-12"><path class="cls-5" d="M87.52,89l1.73,1.73m-1.73,0L89.25,89"/><path class="cls-6" d="M87.52,89l1.73,1.73m-1.73,0L89.25,89"/></g></g><g class="cls-3"><g class="cls-13"><path class="cls-14" d="M114.47,30l1.73,1.74m-1.73,0L116.2,30"/><path class="cls-15" d="M114.47,30l1.73,1.74m-1.73,0L116.2,30"/></g><g class="cls-16"><path class="cls-14" d="M126.58,43.9l1.73,1.73m-1.73,0,1.73-1.73"/><path class="cls-15" d="M126.58,43.9l1.73,1.73m-1.73,0,1.73-1.73"/></g><g class="cls-17"><path class="cls-14" d="M135.41,53.65l1.73,1.73m-1.73,0,1.73-1.73"/><path class="cls-15" d="M135.41,53.65l1.73,1.73m-1.73,0,1.73-1.73"/></g><g class="cls-18"><path class="cls-14" d="M148.1,66.86l1.73,1.74m-1.73,0,1.73-1.74"/><path class="cls-15" d="M148.1,66.86l1.73,1.74m-1.73,0,1.73-1.74"/></g><g class="cls-19"><path class="cls-14" d="M157.24,76.08,159,77.82m-1.73,0L159,76.08"/><path class="cls-15" d="M157.24,76.08,159,77.82m-1.73,0L159,76.08"/></g><g class="cls-20"><path class="cls-14" d="M164.39,82.64l1.73,1.74m-1.73,0,1.73-1.74"/><path class="cls-15" d="M164.39,82.64l1.73,1.74m-1.73,0,1.73-1.74"/></g><g class="cls-21"><path class="cls-14" d="M170.25,87.74,172,89.48m-1.74,0L172,87.74"/><path class="cls-15" d="M170.25,87.74,172,89.48m-1.74,0L172,87.74"/></g><g class="cls-22"><path class="cls-14" d="M175.23,91.56,177,93.29m-1.73,0L177,91.56"/><path class="cls-15" d="M175.23,91.56,177,93.29m-1.73,0L177,91.56"/></g><g class="cls-23"><path class="cls-14" d="M179.56,94.61l1.73,1.73m-1.73,0,1.73-1.73"/><path class="cls-15" d="M179.56,94.61l1.73,1.73m-1.73,0,1.73-1.73"/></g><g class="cls-24"><path class="cls-14" d="M183.38,97.1l1.73,1.73m-1.73,0,1.73-1.73"/><path class="cls-15" d="M183.38,97.1l1.73,1.73m-1.73,0,1.73-1.73"/></g><g class="cls-25"><path class="cls-14" d="M186.8,99.15l1.73,1.74m-1.73,0,1.73-1.74"/><path class="cls-15" d="M186.8,99.15l1.73,1.74m-1.73,0,1.73-1.74"/></g><g class="cls-26"><path class="cls-14" d="M189.9,100.85l1.73,1.73m-1.73,0,1.73-1.73"/><path class="cls-15" d="M189.9,100.85l1.73,1.73m-1.73,0,1.73-1.73"/></g><g class="cls-27"><path class="cls-14" d="M192.73,102.26l1.74,1.73m-1.74,0,1.74-1.73"/><path class="cls-15" d="M192.73,102.26l1.74,1.73m-1.74,0,1.74-1.73"/></g><g class="cls-28"><path class="cls-14" d="M197.76,104.46l1.73,1.73m-1.73,0,1.73-1.73"/><path class="cls-15" d="M197.76,104.46l1.73,1.73m-1.73,0,1.73-1.73"/></g><g class="cls-29"><path class="cls-14" d="M202.12,106.06l1.73,1.73m-1.73,0,1.73-1.73"/><path class="cls-15" d="M202.12,106.06l1.73,1.73m-1.73,0,1.73-1.73"/></g><g class="cls-30"><path class="cls-14" d="M206,107.29,207.7,109M206,109l1.73-1.73"/><path class="cls-15" d="M206,107.29,207.7,109M206,109l1.73-1.73"/></g><g class="cls-31"><path class="cls-14" d="M209.41,108.2l1.74,1.74m-1.74,0,1.74-1.74"/><path class="cls-15" d="M209.41,108.2l1.74,1.74m-1.74,0,1.74-1.74"/></g></g><g class="cls-3"><g class="cls-32"><path class="cls-33" d="M105,30l1.73,1.73m-1.73,0L106.75,30"/><path class="cls-34" d="M105,30l1.73,1.73m-1.73,0L106.75,30"/></g><g class="cls-35"><path class="cls-33" d="M113.5,43.9l1.73,1.73m-1.73,0,1.73-1.73"/><path class="cls-34" d="M113.5,43.9l1.73,1.73m-1.73,0,1.73-1.73"/></g><g class="cls-36"><path class="cls-33" d="M119.56,53.65l1.74,1.73m-1.74,0,1.74-1.73"/><path class="cls-34" d="M119.56,53.65l1.74,1.73m-1.74,0,1.74-1.73"/></g><g class="cls-37"><path class="cls-33" d="M128.25,66.86,130,68.59m-1.74,0L130,66.86"/><path class="cls-34" d="M128.25,66.86,130,68.59m-1.74,0L130,66.86"/></g><g class="cls-38"><path class="cls-33" d="M134.52,76.08l1.73,1.73m-1.73,0,1.73-1.73"/><path class="cls-34" d="M134.52,76.08l1.73,1.73m-1.73,0,1.73-1.73"/></g><g class="cls-39"><path class="cls-33" d="M139.44,82.65l1.73,1.73m-1.73,0,1.73-1.73"/><path class="cls-34" d="M139.44,82.65l1.73,1.73m-1.73,0,1.73-1.73"/></g><g class="cls-40"><path class="cls-33" d="M143.49,87.75l1.73,1.73m-1.73,0,1.73-1.73"/><path class="cls-34" d="M143.49,87.75l1.73,1.73m-1.73,0,1.73-1.73"/></g><g class="cls-41"><path class="cls-33" d="M146.92,91.57l1.73,1.73m-1.73,0,1.73-1.73"/><path class="cls-34" d="M146.92,91.57l1.73,1.73m-1.73,0,1.73-1.73"/></g><g class="cls-42"><path class="cls-33" d="M149.91,94.61l1.73,1.73m-1.73,0,1.73-1.73"/><path class="cls-34" d="M149.91,94.61l1.73,1.73m-1.73,0,1.73-1.73"/></g><g class="cls-43"><path class="cls-33" d="M152.55,97.11l1.73,1.73m-1.73,0,1.73-1.73"/><path class="cls-34" d="M152.55,97.11l1.73,1.73m-1.73,0,1.73-1.73"/></g><g class="cls-44"><path class="cls-33" d="M154.91,99.16l1.74,1.73m-1.74,0,1.74-1.73"/><path class="cls-34" d="M154.91,99.16l1.74,1.73m-1.74,0,1.74-1.73"/></g><g class="cls-45"><path class="cls-33" d="M157.06,100.84l1.73,1.73m-1.73,0,1.73-1.73"/><path class="cls-34" d="M157.06,100.84l1.73,1.73m-1.73,0,1.73-1.73"/></g><g class="cls-46"><path class="cls-33" d="M159,102.25l1.73,1.74M159,104l1.73-1.74"/><path class="cls-34" d="M159,102.25l1.73,1.74M159,104l1.73-1.74"/></g><g class="cls-47"><path class="cls-33" d="M162.5,104.47l1.73,1.73m-1.73,0,1.73-1.73"/><path class="cls-34" d="M162.5,104.47l1.73,1.73m-1.73,0,1.73-1.73"/></g><g class="cls-48"><path class="cls-33" d="M165.51,106.06l1.73,1.73m-1.73,0,1.73-1.73"/><path class="cls-34" d="M165.51,106.06l1.73,1.73m-1.73,0,1.73-1.73"/></g><g class="cls-49"><path class="cls-33" d="M168.17,107.29,169.9,109m-1.73,0,1.73-1.73"/><path class="cls-34" d="M168.17,107.29,169.9,109m-1.73,0,1.73-1.73"/></g><g class="cls-50"><path class="cls-33" d="M170.55,108.2l1.73,1.73m-1.73,0,1.73-1.73"/><path class="cls-34" d="M170.55,108.2l1.73,1.73m-1.73,0,1.73-1.73"/></g></g><line x1="45.46" y1="113.96" x2="45.46" y2="117.46"/><line class="cls-51" x1="45.46" y1="113.96" x2="45.46" y2="117.46"/><polygon points="40.7 125.57 41.67 125.57 41.67 122.23 40.62 122.44 40.62 121.9 41.66 121.69 42.26 121.69 42.26 125.57 43.22 125.57 43.22 126.06 40.7 126.06 40.7 125.57"/><path d="M45.68,121.61a1.29,1.29,0,0,1,1.13.59,3.84,3.84,0,0,1,0,3.37,1.3,1.3,0,0,1-1.13.57,1.26,1.26,0,0,1-1.12-.57,3.84,3.84,0,0,1,0-3.37A1.25,1.25,0,0,1,45.68,121.61Zm0,.47a.75.75,0,0,0-.69.45,4.25,4.25,0,0,0,0,2.7.75.75,0,0,0,.69.45.73.73,0,0,0,.69-.45,4.08,4.08,0,0,0,0-2.7A.73.73,0,0,0,45.68,122.08Z"/><polygon points="48.17 123.42 48.85 123.42 48.85 121.08 48.11 121.23 48.11 120.85 48.84 120.71 49.26 120.71 49.26 123.42 49.94 123.42 49.94 123.77 48.17 123.77 48.17 123.42"/><line x1="70.72" y1="113.96" x2="70.72" y2="117.46"/><line class="cls-51" x1="70.72" y1="113.96" x2="70.72" y2="117.46"/><polygon points="65.97 125.62 66.93 125.62 66.93 122.29 65.88 122.5 65.88 121.96 66.93 121.75 67.52 121.75 67.52 125.62 68.49 125.62 68.49 126.12 65.97 126.12 65.97 125.62"/><path d="M71,121.67a1.28,1.28,0,0,1,1.12.58,3,3,0,0,1,.39,1.69,3,3,0,0,1-.39,1.68,1.38,1.38,0,0,1-2.25,0,3,3,0,0,1-.38-1.68,3,3,0,0,1,.38-1.69A1.3,1.3,0,0,1,71,121.67Zm0,.47a.74.74,0,0,0-.69.45,4.08,4.08,0,0,0,0,2.7.75.75,0,0,0,1.38,0,4.08,4.08,0,0,0,0-2.7A.74.74,0,0,0,71,122.14Z"/><path d="M73.72,123.47h1.45v.35h-2v-.35l.65-.65.51-.53a2.25,2.25,0,0,0,.28-.38.66.66,0,0,0,.07-.3.5.5,0,0,0-.17-.4.63.63,0,0,0-.44-.15,1.51,1.51,0,0,0-.41.06,3.11,3.11,0,0,0-.47.21v-.42a2.79,2.79,0,0,1,.47-.15,1.46,1.46,0,0,1,.4-.05,1.15,1.15,0,0,1,.76.24.81.81,0,0,1,.28.63.86.86,0,0,1-.07.36,1.66,1.66,0,0,1-.26.4l-.32.34Z"/><line x1="95.99" y1="113.96" x2="95.99" y2="117.46"/><line class="cls-51" x1="95.99" y1="113.96" x2="95.99" y2="117.46"/><polygon points="91.23 125.62 92.2 125.62 92.2 122.29 91.15 122.5 91.15 121.96 92.19 121.75 92.79 121.75 92.79 125.62 93.75 125.62 93.75 126.12 91.23 126.12 91.23 125.62"/><path d="M96.21,121.67a1.31,1.31,0,0,1,1.13.58,3.13,3.13,0,0,1,.39,1.69,3.09,3.09,0,0,1-.39,1.68,1.29,1.29,0,0,1-1.13.58,1.25,1.25,0,0,1-1.12-.58,3,3,0,0,1-.39-1.68,3,3,0,0,1,.39-1.69A1.27,1.27,0,0,1,96.21,121.67Zm0,.47a.75.75,0,0,0-.69.45,4.25,4.25,0,0,0,0,2.7.75.75,0,0,0,.69.45.73.73,0,0,0,.69-.45,4.08,4.08,0,0,0,0-2.7A.73.73,0,0,0,96.21,122.14Z"/><path d="M99.89,122.17a.77.77,0,0,1,.46.27.75.75,0,0,1,.17.49.85.85,0,0,1-.31.7,1.39,1.39,0,0,1-.89.25,1.87,1.87,0,0,1-.4,0,2.38,2.38,0,0,1-.42-.11v-.4a1.16,1.16,0,0,0,.38.15,1.49,1.49,0,0,0,.43,0,1,1,0,0,0,.59-.15.57.57,0,0,0,0-.87.86.86,0,0,0-.53-.15H99V122h.37a.78.78,0,0,0,.47-.12.41.41,0,0,0,.16-.36.47.47,0,0,0-.16-.36.85.85,0,0,0-.48-.12l-.37,0-.43.12v-.37a3,3,0,0,1,.44-.1l.39,0a1.21,1.21,0,0,1,.75.21.71.71,0,0,1,.28.58.7.7,0,0,1-.15.43A.74.74,0,0,1,99.89,122.17Z"/><line x1="121.25" y1="113.96" x2="121.25" y2="117.46"/><line class="cls-51" x1="121.25" y1="113.96" x2="121.25" y2="117.46"/><polygon points="116.5 125.57 117.47 125.57 117.47 122.23 116.42 122.44 116.42 121.9 117.46 121.69 118.05 121.69 118.05 125.57 119.02 125.57 119.02 126.06 116.5 126.06 116.5 125.57"/><path d="M121.48,121.61a1.27,1.27,0,0,1,1.12.59,3.84,3.84,0,0,1,0,3.37,1.4,1.4,0,0,1-2.25,0,3.93,3.93,0,0,1,0-3.37A1.28,1.28,0,0,1,121.48,121.61Zm0,.47a.74.74,0,0,0-.69.45,4.08,4.08,0,0,0,0,2.7.75.75,0,0,0,1.38,0,4.08,4.08,0,0,0,0-2.7A.74.74,0,0,0,121.48,122.08Z"/><path d="M124.93,120.71h.52v2h.43v.35h-.43v.72H125v-.72h-1.38v-.4Zm.1.36-1,1.63h1Z"/><line x1="146.52" y1="113.96" x2="146.52" y2="117.46"/><line class="cls-51" x1="146.52" y1="113.96" x2="146.52" y2="117.46"/><polygon points="141.76 125.57 142.73 125.57 142.73 122.23 141.68 122.44 141.68 121.9 142.72 121.69 143.32 121.69 143.32 125.57 144.28 125.57 144.28 126.06 141.76 126.06 141.76 125.57"/><path d="M146.75,121.61a1.29,1.29,0,0,1,1.12.59,3.84,3.84,0,0,1,0,3.37,1.3,1.3,0,0,1-1.13.57,1.27,1.27,0,0,1-1.12-.57,3.84,3.84,0,0,1,0-3.37A1.27,1.27,0,0,1,146.75,121.61Zm0,.47a.73.73,0,0,0-.69.45,4.08,4.08,0,0,0,0,2.7.73.73,0,0,0,.69.45.75.75,0,0,0,.69-.45,4.25,4.25,0,0,0,0-2.7A.75.75,0,0,0,146.75,122.08Z"/><path d="M149.17,120.71h1.62v.35h-1.25v.75l.18,0,.19,0a1.15,1.15,0,0,1,.81.29,1.1,1.1,0,0,1,0,1.52,1.29,1.29,0,0,1-.87.27,2.56,2.56,0,0,1-.39,0,3,3,0,0,1-.41-.09v-.42a1.26,1.26,0,0,0,.38.15,1.4,1.4,0,0,0,.41,0,.8.8,0,0,0,.57-.19.65.65,0,0,0,.2-.5.69.69,0,0,0-.2-.51.85.85,0,0,0-.57-.19,1.86,1.86,0,0,0-.33,0,2.13,2.13,0,0,0-.33.11Z"/><line x1="171.79" y1="113.96" x2="171.79" y2="117.46"/><line class="cls-51" x1="171.79" y1="113.96" x2="171.79" y2="117.46"/><polygon points="167.03 125.62 168 125.62 168 122.29 166.94 122.5 166.94 121.96 167.99 121.75 168.58 121.75 168.58 125.62 169.55 125.62 169.55 126.12 167.03 126.12 167.03 125.62"/><path d="M172,121.67a1.28,1.28,0,0,1,1.12.58,3,3,0,0,1,.39,1.69,3,3,0,0,1-.39,1.68,1.38,1.38,0,0,1-2.25,0,3,3,0,0,1-.38-1.68,3,3,0,0,1,.38-1.69A1.3,1.3,0,0,1,172,121.67Zm0,.47a.74.74,0,0,0-.69.45,4.08,4.08,0,0,0,0,2.7.75.75,0,0,0,1.38,0,4.08,4.08,0,0,0,0-2.7A.74.74,0,0,0,172,122.14Z"/><path d="M176.19,120.83v.38a2.08,2.08,0,0,0-.32-.12l-.31,0a.75.75,0,0,0-.63.27,1.47,1.47,0,0,0-.25.84.74.74,0,0,1,.31-.27.77.77,0,0,1,.4-.1,1,1,0,0,1,.73.28,1.08,1.08,0,0,1,.26.76,1,1,0,0,1-.28.76,1,1,0,0,1-.74.28.94.94,0,0,1-.81-.41,2,2,0,0,1-.28-1.18,1.77,1.77,0,0,1,.35-1.15,1.09,1.09,0,0,1,.92-.43l.32,0Zm-.83,1.3a.55.55,0,0,0-.44.19.77.77,0,0,0-.16.52.8.8,0,0,0,.16.53.57.57,0,0,0,.44.18.54.54,0,0,0,.44-.18.8.8,0,0,0,.17-.53.77.77,0,0,0-.17-.52A.52.52,0,0,0,175.36,122.13Z"/><line x1="197.05" y1="113.96" x2="197.05" y2="117.46"/><line class="cls-51" x1="197.05" y1="113.96" x2="197.05" y2="117.46"/><polygon points="192.29 125.57 193.26 125.57 193.26 122.23 192.21 122.44 192.21 121.9 193.25 121.69 193.85 121.69 193.85 125.57 194.81 125.57 194.81 126.06 192.29 126.06 192.29 125.57"/><path d="M197.28,121.61a1.29,1.29,0,0,1,1.12.59,3.84,3.84,0,0,1,0,3.37,1.3,1.3,0,0,1-1.13.57,1.27,1.27,0,0,1-1.12-.57,3.84,3.84,0,0,1,0-3.37A1.27,1.27,0,0,1,197.28,121.61Zm0,.47a.73.73,0,0,0-.69.45,4.08,4.08,0,0,0,0,2.7.73.73,0,0,0,.69.45.75.75,0,0,0,.69-.45,4.25,4.25,0,0,0,0-2.7A.75.75,0,0,0,197.28,122.08Z"/><polygon points="199.59 120.71 201.56 120.71 201.56 120.88 200.44 123.77 200.01 123.77 201.06 121.06 199.59 121.06 199.59 120.71"/><line x1="37.85" y1="113.96" x2="37.85" y2="115.96"/><line class="cls-52" x1="37.85" y1="113.96" x2="37.85" y2="115.96"/><line x1="39.85" y1="113.96" x2="39.85" y2="115.96"/><line class="cls-52" x1="39.85" y1="113.96" x2="39.85" y2="115.96"/><line x1="41.55" y1="113.96" x2="41.55" y2="115.96"/><line class="cls-52" x1="41.55" y1="113.96" x2="41.55" y2="115.96"/><line x1="43.01" y1="113.96" x2="43.01" y2="115.96"/><line class="cls-52" x1="43.01" y1="113.96" x2="43.01" y2="115.96"/><line x1="44.3" y1="113.96" x2="44.3" y2="115.96"/><line class="cls-52" x1="44.3" y1="113.96" x2="44.3" y2="115.96"/><line x1="53.06" y1="113.96" x2="53.06" y2="115.96"/><line class="cls-52" x1="53.06" y1="113.96" x2="53.06" y2="115.96"/><line x1="57.51" y1="113.96" x2="57.51" y2="115.96"/><line class="cls-52" x1="57.51" y1="113.96" x2="57.51" y2="115.96"/><line x1="60.67" y1="113.96" x2="60.67" y2="115.96"/><line class="cls-52" x1="60.67" y1="113.96" x2="60.67" y2="115.96"/><line x1="63.12" y1="113.96" x2="63.12" y2="115.96"/><line class="cls-52" x1="63.12" y1="113.96" x2="63.12" y2="115.96"/><line x1="65.12" y1="113.96" x2="65.12" y2="115.96"/><line class="cls-52" x1="65.12" y1="113.96" x2="65.12" y2="115.96"/><line x1="66.81" y1="113.96" x2="66.81" y2="115.96"/><line class="cls-52" x1="66.81" y1="113.96" x2="66.81" y2="115.96"/><line x1="68.28" y1="113.96" x2="68.28" y2="115.96"/><line class="cls-52" x1="68.28" y1="113.96" x2="68.28" y2="115.96"/><line x1="69.57" y1="113.96" x2="69.57" y2="115.96"/><line class="cls-52" x1="69.57" y1="113.96" x2="69.57" y2="115.96"/><line x1="78.33" y1="113.96" x2="78.33" y2="115.96"/><line class="cls-52" x1="78.33" y1="113.96" x2="78.33" y2="115.96"/><line x1="82.78" y1="113.96" x2="82.78" y2="115.96"/><line class="cls-52" x1="82.78" y1="113.96" x2="82.78" y2="115.96"/><line x1="85.94" y1="113.96" x2="85.94" y2="115.96"/><line class="cls-52" x1="85.94" y1="113.96" x2="85.94" y2="115.96"/><line x1="88.38" y1="113.96" x2="88.38" y2="115.96"/><line class="cls-52" x1="88.38" y1="113.96" x2="88.38" y2="115.96"/><line x1="90.38" y1="113.96" x2="90.38" y2="115.96"/><line class="cls-52" x1="90.38" y1="113.96" x2="90.38" y2="115.96"/><line x1="92.08" y1="113.96" x2="92.08" y2="115.96"/><line class="cls-52" x1="92.08" y1="113.96" x2="92.08" y2="115.96"/><line x1="93.54" y1="113.96" x2="93.54" y2="115.96"/><line class="cls-52" x1="93.54" y1="113.96" x2="93.54" y2="115.96"/><line x1="94.83" y1="113.96" x2="94.83" y2="115.96"/><line class="cls-52" x1="94.83" y1="113.96" x2="94.83" y2="115.96"/><line x1="103.6" y1="113.96" x2="103.6" y2="115.96"/><line class="cls-52" x1="103.6" y1="113.96" x2="103.6" y2="115.96"/><line x1="108.04" y1="113.96" x2="108.04" y2="115.96"/><line class="cls-52" x1="108.04" y1="113.96" x2="108.04" y2="115.96"/><line x1="111.2" y1="113.96" x2="111.2" y2="115.96"/><line class="cls-52" x1="111.2" y1="113.96" x2="111.2" y2="115.96"/><line x1="113.65" y1="113.96" x2="113.65" y2="115.96"/><line class="cls-52" x1="113.65" y1="113.96" x2="113.65" y2="115.96"/><line x1="115.65" y1="113.96" x2="115.65" y2="115.96"/><line class="cls-52" x1="115.65" y1="113.96" x2="115.65" y2="115.96"/><line x1="117.34" y1="113.96" x2="117.34" y2="115.96"/><line class="cls-52" x1="117.34" y1="113.96" x2="117.34" y2="115.96"/><line x1="118.81" y1="113.96" x2="118.81" y2="115.96"/><line class="cls-52" x1="118.81" y1="113.96" x2="118.81" y2="115.96"/><line x1="120.1" y1="113.96" x2="120.1" y2="115.96"/><line class="cls-52" x1="120.1" y1="113.96" x2="120.1" y2="115.96"/><line x1="128.86" y1="113.96" x2="128.86" y2="115.96"/><line class="cls-52" x1="128.86" y1="113.96" x2="128.86" y2="115.96"/><line x1="133.31" y1="113.96" x2="133.31" y2="115.96"/><line class="cls-52" x1="133.31" y1="113.96" x2="133.31" y2="115.96"/><line x1="136.47" y1="113.96" x2="136.47" y2="115.96"/><line class="cls-52" x1="136.47" y1="113.96" x2="136.47" y2="115.96"/><line x1="138.91" y1="113.96" x2="138.91" y2="115.96"/><line class="cls-52" x1="138.91" y1="113.96" x2="138.91" y2="115.96"/><line x1="140.92" y1="113.96" x2="140.92" y2="115.96"/><line class="cls-52" x1="140.92" y1="113.96" x2="140.92" y2="115.96"/><line x1="142.61" y1="113.96" x2="142.61" y2="115.96"/><line class="cls-52" x1="142.61" y1="113.96" x2="142.61" y2="115.96"/><line x1="144.07" y1="113.96" x2="144.07" y2="115.96"/><line class="cls-52" x1="144.07" y1="113.96" x2="144.07" y2="115.96"/><line x1="145.36" y1="113.96" x2="145.36" y2="115.96"/><line class="cls-52" x1="145.36" y1="113.96" x2="145.36" y2="115.96"/><line x1="154.13" y1="113.96" x2="154.13" y2="115.96"/><line class="cls-52" x1="154.13" y1="113.96" x2="154.13" y2="115.96"/><line x1="158.57" y1="113.96" x2="158.57" y2="115.96"/><line class="cls-52" x1="158.57" y1="113.96" x2="158.57" y2="115.96"/><line x1="161.73" y1="113.96" x2="161.73" y2="115.96"/><line class="cls-52" x1="161.73" y1="113.96" x2="161.73" y2="115.96"/><line x1="164.18" y1="113.96" x2="164.18" y2="115.96"/><line class="cls-52" x1="164.18" y1="113.96" x2="164.18" y2="115.96"/><line x1="166.18" y1="113.96" x2="166.18" y2="115.96"/><line class="cls-52" x1="166.18" y1="113.96" x2="166.18" y2="115.96"/><line x1="167.87" y1="113.96" x2="167.87" y2="115.96"/><line class="cls-52" x1="167.87" y1="113.96" x2="167.87" y2="115.96"/><line x1="169.34" y1="113.96" x2="169.34" y2="115.96"/><line class="cls-52" x1="169.34" y1="113.96" x2="169.34" y2="115.96"/><line x1="170.63" y1="113.96" x2="170.63" y2="115.96"/><line class="cls-52" x1="170.63" y1="113.96" x2="170.63" y2="115.96"/><line x1="179.39" y1="113.96" x2="179.39" y2="115.96"/><line class="cls-52" x1="179.39" y1="113.96" x2="179.39" y2="115.96"/><line x1="183.84" y1="113.96" x2="183.84" y2="115.96"/><line class="cls-52" x1="183.84" y1="113.96" x2="183.84" y2="115.96"/><line x1="187" y1="113.96" x2="187" y2="115.96"/><line class="cls-52" x1="187" y1="113.96" x2="187" y2="115.96"/><line x1="189.45" y1="113.96" x2="189.45" y2="115.96"/><line class="cls-52" x1="189.45" y1="113.96" x2="189.45" y2="115.96"/><line x1="191.45" y1="113.96" x2="191.45" y2="115.96"/><line class="cls-52" x1="191.45" y1="113.96" x2="191.45" y2="115.96"/><line x1="193.14" y1="113.96" x2="193.14" y2="115.96"/><line class="cls-52" x1="193.14" y1="113.96" x2="193.14" y2="115.96"/><line x1="194.6" y1="113.96" x2="194.6" y2="115.96"/><line class="cls-52" x1="194.6" y1="113.96" x2="194.6" y2="115.96"/><line x1="195.89" y1="113.96" x2="195.89" y2="115.96"/><line class="cls-52" x1="195.89" y1="113.96" x2="195.89" y2="115.96"/><line x1="204.66" y1="113.96" x2="204.66" y2="115.96"/><line class="cls-52" x1="204.66" y1="113.96" x2="204.66" y2="115.96"/><line x1="209.11" y1="113.96" x2="209.11" y2="115.96"/><line class="cls-52" x1="209.11" y1="113.96" x2="209.11" y2="115.96"/><line x1="212.26" y1="113.96" x2="212.26" y2="115.96"/><line class="cls-52" x1="212.26" y1="113.96" x2="212.26" y2="115.96"/><line x1="214.71" y1="113.96" x2="214.71" y2="115.96"/><line class="cls-52" x1="214.71" y1="113.96" x2="214.71" y2="115.96"/><line x1="216.71" y1="113.96" x2="216.71" y2="115.96"/><line class="cls-52" x1="216.71" y1="113.96" x2="216.71" y2="115.96"/><line x1="218.4" y1="113.96" x2="218.4" y2="115.96"/><line class="cls-52" x1="218.4" y1="113.96" x2="218.4" y2="115.96"/><polygon points="74.65 132.14 75.25 132.14 75.25 136.02 77.38 136.02 77.38 136.52 74.65 136.52 74.65 132.14"/><path d="M80.54,134.65v1.87H80V136a1.2,1.2,0,0,1-.46.44,1.52,1.52,0,0,1-.68.14,1.12,1.12,0,0,1-.8-.28,1.13,1.13,0,0,1,.08-1.59,1.77,1.77,0,0,1,1.1-.28H80v-.06a.73.73,0,0,0-.25-.57,1.06,1.06,0,0,0-.68-.21,2,2,0,0,0-.55.08,2.23,2.23,0,0,0-.51.19v-.49a3.18,3.18,0,0,1,1.11-.23,1.37,1.37,0,0,1,1.06.37A1.55,1.55,0,0,1,80.54,134.65Zm-1.08.22a1.91,1.91,0,0,0-.9.15.54.54,0,0,0-.25.51.57.57,0,0,0,.18.45.73.73,0,0,0,.52.17.88.88,0,0,0,.72-.32A1.25,1.25,0,0,0,80,135v-.12Z"/><path d="M82.18,132.31v.93h1.11v.42H82.18v1.78a.79.79,0,0,0,.11.51.61.61,0,0,0,.45.12h.55v.45h-.55a1.18,1.18,0,0,1-.86-.24,1.14,1.14,0,0,1-.24-.84v-1.78h-.39v-.42h.39v-.93Z"/><path d="M86.27,134.59a1.07,1.07,0,0,0-.25-.71.82.82,0,0,0-.64-.27,1,1,0,0,0-.72.26,1,1,0,0,0-.31.72Zm.54.15V135H84.33a1.19,1.19,0,0,0,.34.85,1.13,1.13,0,0,0,.83.29,2.41,2.41,0,0,0,.6-.08,2,2,0,0,0,.58-.23v.51a3.12,3.12,0,0,1-.59.19,4.48,4.48,0,0,1-.62.06,1.71,1.71,0,0,1-1.25-.45,1.69,1.69,0,0,1-.45-1.24,1.84,1.84,0,0,1,.43-1.28,1.53,1.53,0,0,1,1.17-.47,1.33,1.33,0,0,1,1,.42A1.68,1.68,0,0,1,86.81,134.74Z"/><path d="M90.42,134.54v2h-.54v-2a1.12,1.12,0,0,0-.19-.7.63.63,0,0,0-.54-.23.88.88,0,0,0-.69.28,1.11,1.11,0,0,0-.25.75v1.86h-.54v-3.28h.54v.51a1.2,1.2,0,0,1,.46-.44,1.19,1.19,0,0,1,.6-.15,1.07,1.07,0,0,1,.86.35A1.62,1.62,0,0,1,90.42,134.54Z"/><path d="M92,132.31v.93h1.11v.42H92v1.78c0,.27,0,.44.11.51a.61.61,0,0,0,.45.12h.55v.45h-.55a1.22,1.22,0,0,1-.87-.24,1.19,1.19,0,0,1-.23-.84v-1.78h-.4v-.42h.4v-.93Z"/><path d="M99.05,132.48v.62a2.32,2.32,0,0,0-.64-.41,1.91,1.91,0,0,0-.71-.14,1.44,1.44,0,0,0-1.15.46,2.39,2.39,0,0,0,0,2.65,1.41,1.41,0,0,0,1.15.46,1.91,1.91,0,0,0,.71-.14,2,2,0,0,0,.64-.42v.62a2,2,0,0,1-.66.31,2.43,2.43,0,0,1-.73.11,2,2,0,0,1-1.56-.6,2.72,2.72,0,0,1,0-3.33,2,2,0,0,1,1.56-.6,2.5,2.5,0,0,1,.74.1A2.29,2.29,0,0,1,99.05,132.48Z"/><path d="M101.21,133.16a1.42,1.42,0,0,1,1.11.45,1.91,1.91,0,0,1,.4,1.27,1.87,1.87,0,0,1-.4,1.26,1.57,1.57,0,0,1-2.22,0,1.86,1.86,0,0,1-.39-1.26,1.91,1.91,0,0,1,.39-1.27A1.42,1.42,0,0,1,101.21,133.16Zm0,.45a.81.81,0,0,0-.68.35,1.48,1.48,0,0,0-.25.92,1.58,1.58,0,0,0,.24.93.87.87,0,0,0,1.38,0,1.84,1.84,0,0,0,0-1.85A.82.82,0,0,0,101.21,133.61Z"/><path d="M103.94,134.88a1.61,1.61,0,0,0,.24.94.78.78,0,0,0,.67.33.81.81,0,0,0,.68-.33,1.61,1.61,0,0,0,.24-.94,1.58,1.58,0,0,0-.24-.93.79.79,0,0,0-.68-.34.76.76,0,0,0-.67.34A1.58,1.58,0,0,0,103.94,134.88Zm1.83-1.15V132h.54v4.56h-.54V136a1,1,0,0,1-.43.43,1.32,1.32,0,0,1-.62.14,1.2,1.2,0,0,1-1-.47,2.3,2.3,0,0,1,0-2.5,1.2,1.2,0,0,1,1-.47,1.32,1.32,0,0,1,.62.14A1.11,1.11,0,0,1,105.77,133.73Z"/><path d="M109.69,134.59a1.07,1.07,0,0,0-.24-.71.85.85,0,0,0-.65-.27,1,1,0,0,0-.72.26,1.09,1.09,0,0,0-.31.72Zm.54.15V135h-2.48a1.28,1.28,0,0,0,.34.85,1.15,1.15,0,0,0,.83.29,2.35,2.35,0,0,0,.6-.08,2.06,2.06,0,0,0,.59-.23v.51a3.22,3.22,0,0,1-.6.19,4.2,4.2,0,0,1-.62.06,1.69,1.69,0,0,1-1.24-.45,1.65,1.65,0,0,1-.46-1.24,1.84,1.84,0,0,1,.43-1.28,1.55,1.55,0,0,1,1.18-.47,1.36,1.36,0,0,1,1,.42A1.72,1.72,0,0,1,110.23,134.74Z"/><polygon points="113.05 132.14 113.64 132.14 113.64 136.02 115.77 136.02 115.77 136.52 113.05 136.52 113.05 132.14"/><path d="M118.54,134.59a1.07,1.07,0,0,0-.25-.71.82.82,0,0,0-.64-.27,1,1,0,0,0-.72.26,1,1,0,0,0-.31.72Zm.54.15V135H116.6a1.19,1.19,0,0,0,.34.85,1.13,1.13,0,0,0,.83.29,2.41,2.41,0,0,0,.6-.08,2,2,0,0,0,.58-.23v.51a3.12,3.12,0,0,1-.59.19,4.48,4.48,0,0,1-.62.06,1.71,1.71,0,0,1-1.25-.45,1.69,1.69,0,0,1-.45-1.24,1.84,1.84,0,0,1,.43-1.28,1.53,1.53,0,0,1,1.17-.47,1.33,1.33,0,0,1,1,.42A1.68,1.68,0,0,1,119.08,134.74Z"/><path d="M122.69,134.54v2h-.54v-2a1.12,1.12,0,0,0-.19-.7.63.63,0,0,0-.54-.23.88.88,0,0,0-.69.28,1.11,1.11,0,0,0-.25.75v1.86h-.54v-3.28h.54v.51a1.2,1.2,0,0,1,.46-.44,1.19,1.19,0,0,1,.6-.15,1.07,1.07,0,0,1,.86.35A1.62,1.62,0,0,1,122.69,134.54Z"/><path d="M126.46,136.11a1.79,1.79,0,0,1-.37,1.24,1.48,1.48,0,0,1-1.14.41,4.39,4.39,0,0,1-.53,0,2.52,2.52,0,0,1-.49-.13v-.53a1.79,1.79,0,0,0,.46.19,2,2,0,0,0,.48.07,1.07,1.07,0,0,0,.79-.28,1.2,1.2,0,0,0,.26-.83v-.27a1,1,0,0,1-.43.43,1.21,1.21,0,0,1-.62.15,1.17,1.17,0,0,1-1-.46,2.2,2.2,0,0,1,0-2.44,1.17,1.17,0,0,1,1-.46,1.32,1.32,0,0,1,.62.14,1.11,1.11,0,0,1,.43.43v-.49h.54Zm-.54-1.27a1.51,1.51,0,0,0-.24-.91.87.87,0,0,0-1.35,0,1.51,1.51,0,0,0-.24.91,1.46,1.46,0,0,0,.24.9.86.86,0,0,0,1.35,0A1.46,1.46,0,0,0,125.92,134.84Z"/><path d="M128.11,132.31v.93h1.11v.42h-1.11v1.78c0,.27,0,.44.11.51a.61.61,0,0,0,.45.12h.55v.45h-.55a1.22,1.22,0,0,1-.87-.24,1.19,1.19,0,0,1-.23-.84v-1.78h-.4v-.42h.4v-.93Z"/><path d="M132.66,134.54v2h-.54v-2a1.12,1.12,0,0,0-.19-.7.63.63,0,0,0-.54-.23.88.88,0,0,0-.69.28,1.06,1.06,0,0,0-.25.75v1.86h-.54V132h.54v1.79a1.12,1.12,0,0,1,.45-.44,1.23,1.23,0,0,1,.61-.15,1.05,1.05,0,0,1,.85.35A1.62,1.62,0,0,1,132.66,134.54Z"/><path d="M136.91,133.16a1.4,1.4,0,0,1,1.1.45,1.86,1.86,0,0,1,.41,1.27,1.82,1.82,0,0,1-.41,1.26,1.56,1.56,0,0,1-2.21,0,1.87,1.87,0,0,1-.4-1.26,1.91,1.91,0,0,1,.4-1.27A1.4,1.4,0,0,1,136.91,133.16Zm0,.45a.79.79,0,0,0-.68.35,1.48,1.48,0,0,0-.26.92,1.51,1.51,0,0,0,.25.93.81.81,0,0,0,.69.34.78.78,0,0,0,.68-.34,1.78,1.78,0,0,0,0-1.85A.79.79,0,0,0,136.91,133.61Z"/><path d="M141.21,133.74a.6.6,0,0,0-.2-.08l-.23,0a.84.84,0,0,0-.7.3,1.27,1.27,0,0,0-.25.85v1.73h-.54v-3.28h.54v.51a1.12,1.12,0,0,1,.44-.45,1.48,1.48,0,0,1,.67-.14h.12l.15,0Z"/><polygon points="143.71 132.14 144.51 132.14 146.44 135.8 146.44 132.14 147.02 132.14 147.02 136.52 146.22 136.52 144.28 132.86 144.28 136.52 143.71 136.52 143.71 132.14"/><path d="M149.44,133.16a1.42,1.42,0,0,1,1.11.45,1.91,1.91,0,0,1,.4,1.27,1.87,1.87,0,0,1-.4,1.26,1.57,1.57,0,0,1-2.22,0,1.86,1.86,0,0,1-.39-1.26,1.91,1.91,0,0,1,.39-1.27A1.42,1.42,0,0,1,149.44,133.16Zm0,.45a.81.81,0,0,0-.68.35,1.48,1.48,0,0,0-.25.92,1.58,1.58,0,0,0,.24.93.87.87,0,0,0,1.38,0,1.84,1.84,0,0,0,0-1.85A.82.82,0,0,0,149.44,133.61Z"/><rect x="151.83" y="135.77" width="0.62" height="0.74"/><path d="M156.84,133.16a1.4,1.4,0,0,1,1.1.45,1.86,1.86,0,0,1,.4,1.27,1.82,1.82,0,0,1-.4,1.26,1.56,1.56,0,0,1-2.21,0,1.82,1.82,0,0,1-.4-1.26,1.86,1.86,0,0,1,.4-1.27A1.39,1.39,0,0,1,156.84,133.16Zm0,.45a.82.82,0,0,0-.69.35,1.55,1.55,0,0,0-.25.92,1.51,1.51,0,0,0,.25.93.86.86,0,0,0,1.37,0,1.84,1.84,0,0,0,0-1.85A.8.8,0,0,0,156.84,133.61Z"/><path d="M160.9,132v.45h-.52a.53.53,0,0,0-.4.12.57.57,0,0,0-.11.42v.29h.89v.42h-.89v2.86h-.54v-2.86h-.52v-.42h.52V133a.91.91,0,0,1,1.06-1Z"/><polygon points="164.41 136.52 162.74 132.14 163.36 132.14 164.75 135.83 166.13 132.14 166.75 132.14 165.08 136.52 164.41 136.52"/><path d="M168.18,133.16a1.42,1.42,0,0,1,1.11.45,1.91,1.91,0,0,1,.4,1.27,1.87,1.87,0,0,1-.4,1.26,1.57,1.57,0,0,1-2.22,0,1.86,1.86,0,0,1-.39-1.26,1.91,1.91,0,0,1,.39-1.27A1.42,1.42,0,0,1,168.18,133.16Zm0,.45a.8.8,0,0,0-.68.35,1.48,1.48,0,0,0-.25.92,1.51,1.51,0,0,0,.24.93.87.87,0,0,0,1.38,0,1.84,1.84,0,0,0,0-1.85A.82.82,0,0,0,168.18,133.61Z"/><polygon points="173.14 133.24 171.95 134.83 173.2 136.52 172.56 136.52 171.61 135.23 170.66 136.52 170.02 136.52 171.29 134.8 170.13 133.24 170.76 133.24 171.63 134.41 172.5 133.24 173.14 133.24"/><path d="M176.06,134.59a1.07,1.07,0,0,0-.25-.71.82.82,0,0,0-.64-.27,1,1,0,0,0-.72.26,1,1,0,0,0-.31.72Zm.54.15V135h-2.48a1.19,1.19,0,0,0,.34.85,1.13,1.13,0,0,0,.83.29,2.41,2.41,0,0,0,.6-.08,2,2,0,0,0,.58-.23v.51a3.12,3.12,0,0,1-.59.19,4.48,4.48,0,0,1-.62.06,1.71,1.71,0,0,1-1.25-.45,1.69,1.69,0,0,1-.45-1.24,1.84,1.84,0,0,1,.43-1.28,1.53,1.53,0,0,1,1.17-.47,1.33,1.33,0,0,1,1.05.42A1.68,1.68,0,0,1,176.6,134.74Z"/><rect x="177.48" y="131.96" width="0.54" height="4.56"/><path d="M181.24,133.33v.51a2.64,2.64,0,0,0-.47-.17,2.22,2.22,0,0,0-.51-.06,1.22,1.22,0,0,0-.61.12.43.43,0,0,0-.2.37.33.33,0,0,0,.15.29,1.41,1.41,0,0,0,.57.21l.19,0a1.8,1.8,0,0,1,.82.35.85.85,0,0,1,.24.62.83.83,0,0,1-.36.72,1.65,1.65,0,0,1-1,.27,3.51,3.51,0,0,1-.55,0,3.76,3.76,0,0,1-.6-.15v-.56a2.06,2.06,0,0,0,.59.23,1.87,1.87,0,0,0,.57.08,1.21,1.21,0,0,0,.59-.12.43.43,0,0,0,.2-.38.4.4,0,0,0-.15-.33,1.62,1.62,0,0,0-.64-.23l-.19,0a1.42,1.42,0,0,1-.73-.33.78.78,0,0,1-.22-.6.85.85,0,0,1,.33-.71,1.45,1.45,0,0,1,.93-.25,3.45,3.45,0,0,1,.57.05A3.37,3.37,0,0,1,181.24,133.33Z"/><g class="cls-3"><line class="cls-53" x1="37.22" y1="111.85" x2="218.52" y2="111.85"/></g><line x1="37.22" y1="111.85" x2="33.72" y2="111.85"/><line class="cls-51" x1="37.22" y1="111.85" x2="33.72" y2="111.85"/><polygon points="15.96 113.59 16.93 113.59 16.93 110.25 15.88 110.46 15.88 109.92 16.92 109.71 17.52 109.71 17.52 113.59 18.48 113.59 18.48 114.09 15.96 114.09 15.96 113.59"/><path d="M20.94,109.64a1.29,1.29,0,0,1,1.13.58,3.84,3.84,0,0,1,0,3.37,1.31,1.31,0,0,1-1.13.58,1.27,1.27,0,0,1-1.12-.58,3.84,3.84,0,0,1,0-3.37A1.25,1.25,0,0,1,20.94,109.64Zm0,.46a.75.75,0,0,0-.69.45,4.25,4.25,0,0,0,0,2.7.75.75,0,0,0,.69.45.73.73,0,0,0,.69-.45,4.08,4.08,0,0,0,0-2.7A.73.73,0,0,0,20.94,110.1Z"/><path d="M26.88,108.73h1.63v.35H27.26v.75l.18,0h.18a1.13,1.13,0,0,1,.81.28,1,1,0,0,1,.3.76,1,1,0,0,1-.31.77,1.25,1.25,0,0,1-.86.27l-.4,0a2.43,2.43,0,0,1-.41-.1v-.42a1.8,1.8,0,0,0,.38.16,1.87,1.87,0,0,0,.42,0,.82.82,0,0,0,.56-.18.72.72,0,0,0,0-1,.82.82,0,0,0-.56-.18,1.84,1.84,0,0,0-.33,0l-.34.12Z"/><g class="cls-54"><rect x="23.36" y="110.3" width="2.63" height="0.35"/></g><g class="cls-3"><line class="cls-53" x1="37.22" y1="75.23" x2="218.52" y2="75.23"/></g><line x1="37.22" y1="75.23" x2="33.72" y2="75.23"/><line class="cls-51" x1="37.22" y1="75.23" x2="33.72" y2="75.23"/><polygon points="15.96 76.97 16.93 76.97 16.93 73.63 15.88 73.84 15.88 73.3 16.92 73.09 17.52 73.09 17.52 76.97 18.48 76.97 18.48 77.46 15.96 77.46 15.96 76.97"/><path d="M20.94,73a1.31,1.31,0,0,1,1.13.58,3.15,3.15,0,0,1,.39,1.69A3.06,3.06,0,0,1,22.07,77a1.29,1.29,0,0,1-1.13.58A1.25,1.25,0,0,1,19.82,77a3,3,0,0,1-.39-1.68,3.06,3.06,0,0,1,.39-1.69A1.27,1.27,0,0,1,20.94,73Zm0,.47a.75.75,0,0,0-.69.45,4.25,4.25,0,0,0,0,2.7.75.75,0,0,0,.69.45.73.73,0,0,0,.69-.45,4.08,4.08,0,0,0,0-2.7A.73.73,0,0,0,20.94,73.48Z"/><path d="M27.91,72.1h.52v2h.43v.34h-.43v.73H28v-.73H26.63V74Zm.11.37L27,74.1H28Z"/><g class="cls-55"><rect x="23.36" y="73.67" width="2.63" height="0.35"/></g><g class="cls-3"><line class="cls-53" x1="37.22" y1="38.6" x2="218.52" y2="38.6"/></g><line x1="37.22" y1="38.6" x2="33.72" y2="38.6"/><line class="cls-51" x1="37.22" y1="38.6" x2="33.72" y2="38.6"/><polygon points="15.96 40.39 16.93 40.39 16.93 37.06 15.88 37.27 15.88 36.73 16.92 36.52 17.52 36.52 17.52 40.39 18.48 40.39 18.48 40.89 15.96 40.89 15.96 40.39"/><path d="M20.94,36.44a1.31,1.31,0,0,1,1.13.58,3.15,3.15,0,0,1,.39,1.69,3.06,3.06,0,0,1-.39,1.68,1.29,1.29,0,0,1-1.13.58,1.25,1.25,0,0,1-1.12-.58,3,3,0,0,1-.39-1.68A3.06,3.06,0,0,1,19.82,37,1.27,1.27,0,0,1,20.94,36.44Zm0,.47a.75.75,0,0,0-.69.45,4.25,4.25,0,0,0,0,2.7.75.75,0,0,0,.69.45.73.73,0,0,0,.69-.45,4.08,4.08,0,0,0,0-2.7A.73.73,0,0,0,20.94,36.91Z"/><path d="M28.13,36.94a.82.82,0,0,1,.47.27.74.74,0,0,1,.16.49.85.85,0,0,1-.31.71,1.42,1.42,0,0,1-.88.24,1.81,1.81,0,0,1-.4,0,2.17,2.17,0,0,1-.42-.11v-.4a1.16,1.16,0,0,0,.38.15,1.42,1.42,0,0,0,.42.06,1,1,0,0,0,.6-.16.54.54,0,0,0,.2-.45.52.52,0,0,0-.19-.42.82.82,0,0,0-.53-.15h-.35v-.34h.37a.8.8,0,0,0,.47-.12.41.41,0,0,0,.16-.36.45.45,0,0,0-.17-.36.81.81,0,0,0-.48-.12l-.36,0-.43.12v-.37a4.5,4.5,0,0,1,.44-.1l.39,0a1.23,1.23,0,0,1,.75.21.72.72,0,0,1,.27.58.69.69,0,0,1-.14.43A.73.73,0,0,1,28.13,36.94Z"/><g class="cls-56"><rect x="23.36" y="37.1" width="2.63" height="0.35"/></g><g class="cls-3"><line class="cls-53" x1="37.22" y1="113.53" x2="218.52" y2="113.53"/></g><line x1="37.22" y1="113.53" x2="35.22" y2="113.53"/><line class="cls-52" x1="37.22" y1="113.53" x2="35.22" y2="113.53"/><g class="cls-3"><line class="cls-53" x1="37.22" y1="100.83" x2="218.52" y2="100.83"/></g><line x1="37.22" y1="100.83" x2="35.22" y2="100.83"/><line class="cls-52" x1="37.22" y1="100.83" x2="35.22" y2="100.83"/><g class="cls-3"><line class="cls-53" x1="37.22" y1="94.38" x2="218.52" y2="94.38"/></g><line x1="37.22" y1="94.38" x2="35.22" y2="94.38"/><line class="cls-52" x1="37.22" y1="94.38" x2="35.22" y2="94.38"/><g class="cls-3"><line class="cls-53" x1="37.22" y1="89.8" x2="218.52" y2="89.8"/></g><line x1="37.22" y1="89.8" x2="35.22" y2="89.8"/><line class="cls-52" x1="37.22" y1="89.8" x2="35.22" y2="89.8"/><g class="cls-3"><line class="cls-53" x1="37.22" y1="86.25" x2="218.52" y2="86.25"/></g><line x1="37.22" y1="86.25" x2="35.22" y2="86.25"/><line class="cls-52" x1="37.22" y1="86.25" x2="35.22" y2="86.25"/><g class="cls-3"><line class="cls-53" x1="37.22" y1="83.35" x2="218.52" y2="83.35"/></g><line x1="37.22" y1="83.35" x2="35.22" y2="83.35"/><line class="cls-52" x1="37.22" y1="83.35" x2="35.22" y2="83.35"/><g class="cls-3"><line class="cls-53" x1="37.22" y1="80.9" x2="218.52" y2="80.9"/></g><line x1="37.22" y1="80.9" x2="35.22" y2="80.9"/><line class="cls-52" x1="37.22" y1="80.9" x2="35.22" y2="80.9"/><g class="cls-3"><line class="cls-53" x1="37.22" y1="78.78" x2="218.52" y2="78.78"/></g><line x1="37.22" y1="78.78" x2="35.22" y2="78.78"/><line class="cls-52" x1="37.22" y1="78.78" x2="35.22" y2="78.78"/><g class="cls-3"><line class="cls-53" x1="37.22" y1="76.9" x2="218.52" y2="76.9"/></g><line x1="37.22" y1="76.9" x2="35.22" y2="76.9"/><line class="cls-52" x1="37.22" y1="76.9" x2="35.22" y2="76.9"/><g class="cls-3"><line class="cls-53" x1="37.22" y1="64.2" x2="218.52" y2="64.2"/></g><line x1="37.22" y1="64.2" x2="35.22" y2="64.2"/><line class="cls-52" x1="37.22" y1="64.2" x2="35.22" y2="64.2"/><g class="cls-3"><line class="cls-53" x1="37.22" y1="57.75" x2="218.52" y2="57.75"/></g><line x1="37.22" y1="57.75" x2="35.22" y2="57.75"/><line class="cls-52" x1="37.22" y1="57.75" x2="35.22" y2="57.75"/><g class="cls-3"><line class="cls-53" x1="37.22" y1="53.18" x2="218.52" y2="53.18"/></g><line x1="37.22" y1="53.18" x2="35.22" y2="53.18"/><line class="cls-52" x1="37.22" y1="53.18" x2="35.22" y2="53.18"/><g class="cls-3"><line class="cls-53" x1="37.22" y1="49.63" x2="218.52" y2="49.63"/></g><line x1="37.22" y1="49.63" x2="35.22" y2="49.63"/><line class="cls-52" x1="37.22" y1="49.63" x2="35.22" y2="49.63"/><g class="cls-3"><line class="cls-53" x1="37.22" y1="46.73" x2="218.52" y2="46.73"/></g><line x1="37.22" y1="46.73" x2="35.22" y2="46.73"/><line class="cls-52" x1="37.22" y1="46.73" x2="35.22" y2="46.73"/><g class="cls-3"><line class="cls-53" x1="37.22" y1="44.28" x2="218.52" y2="44.28"/></g><line x1="37.22" y1="44.28" x2="35.22" y2="44.28"/><line class="cls-52" x1="37.22" y1="44.28" x2="35.22" y2="44.28"/><g class="cls-3"><line class="cls-53" x1="37.22" y1="42.15" x2="218.52" y2="42.15"/></g><line x1="37.22" y1="42.15" x2="35.22" y2="42.15"/><line class="cls-52" x1="37.22" y1="42.15" x2="35.22" y2="42.15"/><g class="cls-3"><line class="cls-53" x1="37.22" y1="40.28" x2="218.52" y2="40.28"/></g><line x1="37.22" y1="40.28" x2="35.22" y2="40.28"/><line class="cls-52" x1="37.22" y1="40.28" x2="35.22" y2="40.28"/><g class="cls-3"><line class="cls-53" x1="37.22" y1="27.58" x2="218.52" y2="27.58"/></g><line x1="37.22" y1="27.58" x2="35.22" y2="27.58"/><line class="cls-52" x1="37.22" y1="27.58" x2="35.22" y2="27.58"/><g class="cls-3"><line class="cls-53" x1="37.22" y1="21.13" x2="218.52" y2="21.13"/></g><line x1="37.22" y1="21.13" x2="35.22" y2="21.13"/><line class="cls-52" x1="37.22" y1="21.13" x2="35.22" y2="21.13"/><g class="cls-3"><line class="cls-53" x1="37.22" y1="16.55" x2="218.52" y2="16.55"/></g><line x1="37.22" y1="16.55" x2="35.22" y2="16.55"/><line class="cls-52" x1="37.22" y1="16.55" x2="35.22" y2="16.55"/><g class="cls-3"><line class="cls-53" x1="37.22" y1="13" x2="218.52" y2="13"/></g><line x1="37.22" y1="13" x2="35.22" y2="13"/><line class="cls-52" x1="37.22" y1="13" x2="35.22" y2="13"/><g class="cls-3"><line class="cls-53" x1="37.22" y1="10.1" x2="218.52" y2="10.1"/></g><line x1="37.22" y1="10.1" x2="35.22" y2="10.1"/><line class="cls-52" x1="37.22" y1="10.1" x2="35.22" y2="10.1"/><g class="cls-3"><line class="cls-53" x1="37.22" y1="7.65" x2="218.52" y2="7.65"/></g><line x1="37.22" y1="7.65" x2="35.22" y2="7.65"/><line class="cls-52" x1="37.22" y1="7.65" x2="35.22" y2="7.65"/><polygon points="5.59 98.44 5.59 97.56 8.57 96.44 5.59 95.32 5.59 94.44 9.97 94.44 9.97 95.02 6.13 95.02 9.13 96.14 9.13 96.74 6.13 97.87 9.97 97.87 9.97 98.44 5.59 98.44"/><path d="M8,91a1.07,1.07,0,0,0-.71.25.81.81,0,0,0-.27.64,1,1,0,0,0,.26.72,1,1,0,0,0,.72.31Zm.15-.54h.27V93a1.23,1.23,0,0,0,.85-.34,1.15,1.15,0,0,0,.29-.83,2.35,2.35,0,0,0-.08-.6,2,2,0,0,0-.23-.58H9.8a3.12,3.12,0,0,1,.19.59,4.2,4.2,0,0,1,.06.62,1.71,1.71,0,0,1-.45,1.25,1.69,1.69,0,0,1-1.24.45,1.84,1.84,0,0,1-1.28-.43,1.54,1.54,0,0,1-.47-1.18,1.36,1.36,0,0,1,.42-1A1.72,1.72,0,0,1,8.19,90.48Z"/><path d="M8.33,89.27A1.54,1.54,0,0,0,9.27,89a.78.78,0,0,0,.33-.67.81.81,0,0,0-.33-.68,1.61,1.61,0,0,0-.94-.24,1.58,1.58,0,0,0-.93.24.79.79,0,0,0-.34.68A.76.76,0,0,0,7.4,89,1.51,1.51,0,0,0,8.33,89.27ZM7.18,87.44H5.41V86.9H10v.54H9.48a1.11,1.11,0,0,1,.43.43,1.32,1.32,0,0,1,.14.62,1.2,1.2,0,0,1-.47,1,1.94,1.94,0,0,1-1.25.37,2,2,0,0,1-1.25-.37,1.2,1.2,0,0,1-.47-1,1.32,1.32,0,0,1,.14-.62A1.18,1.18,0,0,1,7.18,87.44Z"/><path d="M5.41,85.79v-.54h.68v.54Zm1.28,0v-.54H10v.54Z"/><path d="M8.1,81.55H10v.54h-.5a1.2,1.2,0,0,1,.44.46,1.52,1.52,0,0,1,.14.68,1.12,1.12,0,0,1-.28.8,1,1,0,0,1-.76.29A1,1,0,0,1,8.18,84a1.77,1.77,0,0,1-.28-1.1v-.76H7.84a.73.73,0,0,0-.57.25,1.06,1.06,0,0,0-.21.68,2,2,0,0,0,.08.55,2.23,2.23,0,0,0,.19.51H6.84A3.18,3.18,0,0,1,6.61,83,1.37,1.37,0,0,1,7,81.91,1.55,1.55,0,0,1,8.1,81.55Zm.22,1.08a1.91,1.91,0,0,0,.15.9.54.54,0,0,0,.51.25.57.57,0,0,0,.45-.18.73.73,0,0,0,.17-.52.88.88,0,0,0-.32-.72,1.25,1.25,0,0,0-.84-.27H8.32Z"/><path d="M8,77.71h2v.54H8a1.12,1.12,0,0,0-.7.19.63.63,0,0,0-.23.54.88.88,0,0,0,.28.69,1.06,1.06,0,0,0,.75.25H10v.54H6.69v-.54H7.2a1.2,1.2,0,0,1-.44-.46,1.16,1.16,0,0,1-.15-.6A1.05,1.05,0,0,1,7,78,1.56,1.56,0,0,1,8,77.71Z"/><path d="M5.93,71.43h.62a2.32,2.32,0,0,0-.41.64,1.92,1.92,0,0,0-.14.72,1.47,1.47,0,0,0,.46,1.15,2,2,0,0,0,1.32.39,2,2,0,0,0,1.33-.39,1.44,1.44,0,0,0,.46-1.15,1.92,1.92,0,0,0-.14-.72A2,2,0,0,0,9,71.43h.62a2,2,0,0,1,.31.66,2.48,2.48,0,0,1,.11.73,2.09,2.09,0,0,1-.6,1.57A2.35,2.35,0,0,1,7.78,75a2.34,2.34,0,0,1-1.66-.57,2.09,2.09,0,0,1-.6-1.57,2.55,2.55,0,0,1,.1-.74A2.42,2.42,0,0,1,5.93,71.43Z"/><path d="M8,67.81h2v.54H8a1.12,1.12,0,0,0-.7.19.63.63,0,0,0-.23.54.88.88,0,0,0,.28.69,1.06,1.06,0,0,0,.75.25H10v.54H5.41V70H7.2a1.2,1.2,0,0,1-.44-.46,1.16,1.16,0,0,1-.15-.6A1.05,1.05,0,0,1,7,68.11,1.56,1.56,0,0,1,8,67.81Z"/><path d="M8.1,64.17H10v.54h-.5a1.2,1.2,0,0,1,.44.46,1.51,1.51,0,0,1,.14.67,1.13,1.13,0,0,1-.28.81,1,1,0,0,1-.76.29,1,1,0,0,1-.83-.37,1.79,1.79,0,0,1-.28-1.1v-.76H7.84a.7.7,0,0,0-.57.25,1.06,1.06,0,0,0-.21.68,2,2,0,0,0,.08.55,2.23,2.23,0,0,0,.19.51H6.84a3.18,3.18,0,0,1-.23-1.11A1.41,1.41,0,0,1,7,64.52,1.6,1.6,0,0,1,8.1,64.17Zm.22,1.07a1.94,1.94,0,0,0,.15.91A.54.54,0,0,0,9,66.4a.57.57,0,0,0,.45-.18.73.73,0,0,0,.17-.52A.88.88,0,0,0,9.28,65a1.25,1.25,0,0,0-.84-.27H8.32Z"/><path d="M7.32,60.5A1.42,1.42,0,0,1,6.78,60a1.24,1.24,0,0,1-.17-.66A1,1,0,0,1,7,58.57a1.67,1.67,0,0,1,1-.28h2v.54H8A1.24,1.24,0,0,0,7.3,59a.59.59,0,0,0-.22.51.81.81,0,0,0,.28.66,1.06,1.06,0,0,0,.75.24H10V61H8a1.24,1.24,0,0,0-.71.17.62.62,0,0,0-.22.52.83.83,0,0,0,.28.66,1.11,1.11,0,0,0,.75.24H10v.54H6.69v-.54H7.2a1.21,1.21,0,0,1-.45-.45,1.25,1.25,0,0,1-.14-.61,1,1,0,0,1,.18-.6A1.12,1.12,0,0,1,7.32,60.5Z"/><path d="M5.41,55.55h.45v.52a.53.53,0,0,0,.12.4.57.57,0,0,0,.42.12h.29V55.7h.42v.89H10v.54H7.11v.51H6.69v-.51H6.46a1.1,1.1,0,0,1-.8-.26,1.08,1.08,0,0,1-.25-.81Z"/><path d="M8,52.84a1.07,1.07,0,0,0-.71.24.82.82,0,0,0-.27.64,1,1,0,0,0,.26.72,1.1,1.1,0,0,0,.72.32Zm.15-.54h.27v2.47a1.23,1.23,0,0,0,.85-.33,1.17,1.17,0,0,0,.29-.84,2.47,2.47,0,0,0-.08-.6,2,2,0,0,0-.23-.58H9.8A3,3,0,0,1,10,53a4.2,4.2,0,0,1,.06.61,1.69,1.69,0,0,1-.45,1.25,1.65,1.65,0,0,1-1.24.46,1.88,1.88,0,0,1-1.28-.43,1.55,1.55,0,0,1-.47-1.18,1.36,1.36,0,0,1,.42-1A1.72,1.72,0,0,1,8.19,52.3Z"/><path d="M7.19,49.51a.7.7,0,0,0-.08.2,1.64,1.64,0,0,0,0,.23.87.87,0,0,0,.3.71,1.32,1.32,0,0,0,.85.24H10v.54H6.69v-.54H7.2a1.12,1.12,0,0,1-.45-.44,1.46,1.46,0,0,1-.14-.66v-.13s0-.09,0-.15Z"/><path d="M5.59,47V45.8a2.78,2.78,0,0,1,.53-1.87,2.15,2.15,0,0,1,1.66-.59,2.1,2.1,0,0,1,1.66.6A2.75,2.75,0,0,1,10,45.8V47Zm.49-.6h3.4v-.71a1.83,1.83,0,0,0-.41-1.33A1.77,1.77,0,0,0,7.78,44a1.77,1.77,0,0,0-1.29.42,1.87,1.87,0,0,0-.41,1.33Z"/><path d="M5.41,42.42v-.54h.68v.54Zm1.28,0v-.54H10v.54Z"/><path d="M6.78,38.66h.51a2.64,2.64,0,0,0-.17.47,2.22,2.22,0,0,0-.06.51,1.22,1.22,0,0,0,.12.61.43.43,0,0,0,.37.2.33.33,0,0,0,.29-.15,1.41,1.41,0,0,0,.21-.57l0-.19a1.8,1.8,0,0,1,.35-.82.85.85,0,0,1,.62-.24.83.83,0,0,1,.72.36,1.65,1.65,0,0,1,.27,1,3.51,3.51,0,0,1-.05.55,3.76,3.76,0,0,1-.15.6H9.29a2.06,2.06,0,0,0,.23-.59,1.87,1.87,0,0,0,.08-.57,1.21,1.21,0,0,0-.12-.59A.43.43,0,0,0,9.1,39a.4.4,0,0,0-.33.15,1.62,1.62,0,0,0-.23.64l0,.19a1.42,1.42,0,0,1-.33.73.78.78,0,0,1-.6.22.85.85,0,0,1-.71-.33,1.45,1.45,0,0,1-.25-.93,3.45,3.45,0,0,1,0-.57A3.37,3.37,0,0,1,6.78,38.66Z"/><path d="M5.76,37.09h.93V36h.42v1.11H8.89c.27,0,.44,0,.51-.11a.61.61,0,0,0,.12-.45V36H10v.55a1.22,1.22,0,0,1-.24.87,1.19,1.19,0,0,1-.84.23H7.11V38H6.69v-.4H5.76Z"/><path d="M8.1,32.71H10v.54h-.5a1.14,1.14,0,0,1,.44.46,1.51,1.51,0,0,1,.14.67,1.08,1.08,0,0,1-.28.8,1,1,0,0,1-.76.3,1,1,0,0,1-.83-.37A1.82,1.82,0,0,1,7.9,34v-.75H7.84a.72.72,0,0,0-.57.24,1.07,1.07,0,0,0-.21.69,2,2,0,0,0,.08.55,2.23,2.23,0,0,0,.19.51H6.84a3.17,3.17,0,0,1-.23-1.12A1.38,1.38,0,0,1,7,33.06,1.6,1.6,0,0,1,8.1,32.71Zm.22,1.07a1.94,1.94,0,0,0,.15.91.56.56,0,0,0,.51.25.54.54,0,0,0,.45-.19.7.7,0,0,0,.17-.51.88.88,0,0,0-.32-.72,1.25,1.25,0,0,0-.84-.27H8.32Z"/><path d="M8,28.87h2v.54H8a1.13,1.13,0,0,0-.7.18.63.63,0,0,0-.23.54.86.86,0,0,0,.28.69,1.06,1.06,0,0,0,.75.25H10v.54H6.69v-.54H7.2a1.12,1.12,0,0,1-.44-.45A1.23,1.23,0,0,1,6.61,30,1.05,1.05,0,0,1,7,29.16,1.62,1.62,0,0,1,8,28.87Z"/><path d="M6.81,25.43h.51a1.66,1.66,0,0,0-.19.46,1.9,1.9,0,0,0-.07.46,1,1,0,0,0,.34.82,1.38,1.38,0,0,0,.93.29,1.43,1.43,0,0,0,.94-.29,1,1,0,0,0,.33-.82,1.88,1.88,0,0,0-.06-.46,2.07,2.07,0,0,0-.2-.46h.5a2,2,0,0,1,.16.47,2.76,2.76,0,0,1,.05.51,1.52,1.52,0,0,1-.47,1.18A1.73,1.73,0,0,1,8.33,28a1.77,1.77,0,0,1-1.26-.44,1.6,1.6,0,0,1-.46-1.21,2.63,2.63,0,0,1,0-.49A3.53,3.53,0,0,1,6.81,25.43Z"/><path d="M8,22.22a1.07,1.07,0,0,0-.71.25.82.82,0,0,0-.27.64,1,1,0,0,0,.26.72,1,1,0,0,0,.72.31Zm.15-.54h.27v2.48a1.23,1.23,0,0,0,.85-.33A1.17,1.17,0,0,0,9.6,23a2.41,2.41,0,0,0-.08-.6,2,2,0,0,0-.23-.58H9.8a3.12,3.12,0,0,1,.19.59,4.48,4.48,0,0,1,.06.62,1.71,1.71,0,0,1-.45,1.25,1.65,1.65,0,0,1-1.24.46,1.84,1.84,0,0,1-1.28-.44,1.51,1.51,0,0,1-.47-1.17A1.35,1.35,0,0,1,7,22.07,1.73,1.73,0,0,1,8.19,21.68Z"/><g class="cls-3"><polyline class="cls-57" points="45.46 11.37 63.12 76.68 70.72 85.74 78.33 87.95 81.04 93.45 82.78 88.49 88.38 89.83"/></g><g class="cls-3"><polyline class="cls-58" points="115.34 30.91 127.44 44.77 136.27 54.52 148.97 67.73 158.11 76.95 165.25 83.51 171.12 88.61 176.1 92.42 180.42 95.48 184.24 97.97 187.67 100.02 190.77 101.71 193.6 103.13 198.63 105.33 202.99 106.93 206.83 108.15 210.28 109.07"/></g><g class="cls-3"><polyline class="cls-59" points="105.89 30.91 114.36 44.76 120.43 54.52 129.12 67.73 135.39 76.95 140.31 83.51 144.35 88.61 147.79 92.43 150.77 95.47 153.41 97.97 155.78 100.02 157.92 101.71 159.88 103.12 163.36 105.33 166.38 106.93 169.04 108.16 171.42 109.06"/></g><line class="cls-60" x1="37.22" y1="113.96" x2="37.22" y2="6.48"/><line class="cls-60" x1="218.52" y1="113.96" x2="218.52" y2="6.48"/><line class="cls-60" x1="37.22" y1="113.96" x2="218.52" y2="113.96"/><line class="cls-60" x1="37.22" y1="6.48" x2="218.52" y2="6.48"/><rect class="cls-61" x="140.98" y="9.48" width="74.54" height="28.24" rx="1.2"/><rect class="cls-62" x="140.98" y="9.48" width="74.54" height="28.24" rx="1.2"/><polyline class="cls-57" points="143.38 14.34 149.38 14.34 155.38 14.34"/><polygon points="160.77 12.07 161.37 12.07 161.37 15.95 163.49 15.95 163.49 16.44 160.77 16.44 160.77 12.07"/><path d="M166.66,14.57v1.87h-.54v-.5a1.15,1.15,0,0,1-.47.44,1.48,1.48,0,0,1-.67.14,1.12,1.12,0,0,1-.8-.28,1,1,0,0,1-.3-.75,1,1,0,0,1,.38-.84,1.83,1.83,0,0,1,1.1-.28h.76v0a.73.73,0,0,0-.25-.58,1.06,1.06,0,0,0-.68-.2,2,2,0,0,0-.56.07,2.45,2.45,0,0,0-.51.2v-.5a5.12,5.12,0,0,1,.57-.17,3.55,3.55,0,0,1,.55-.06,1.42,1.42,0,0,1,1.06.37A1.55,1.55,0,0,1,166.66,14.57Zm-1.08.22a2,2,0,0,0-.9.15.55.55,0,0,0-.26.51.58.58,0,0,0,.19.46.77.77,0,0,0,.52.17.9.9,0,0,0,.72-.32,1.26,1.26,0,0,0,.27-.85v-.12Z"/><path d="M168.3,12.23v.93h1.11v.42H168.3v1.78a.82.82,0,0,0,.11.52c.07.08.22.11.45.11h.55v.45h-.55a1.28,1.28,0,0,1-.87-.23,1.24,1.24,0,0,1-.23-.85V13.58h-.4v-.42h.4v-.93Z"/><path d="M172.39,14.51a1.09,1.09,0,0,0-.25-.71.85.85,0,0,0-.64-.26,1,1,0,0,0-1,1Zm.54.16v.26h-2.48a1.23,1.23,0,0,0,.33.85,1.17,1.17,0,0,0,.84.29,2.4,2.4,0,0,0,.6-.07,2.38,2.38,0,0,0,.58-.24v.51a2.54,2.54,0,0,1-.59.19,3.34,3.34,0,0,1-.62.06,1.71,1.71,0,0,1-1.25-.45,1.64,1.64,0,0,1-.46-1.24,1.8,1.8,0,0,1,.44-1.27,1.49,1.49,0,0,1,1.17-.48,1.36,1.36,0,0,1,1,.43A1.71,1.71,0,0,1,172.93,14.67Z"/><path d="M176.54,14.46v2H176v-2a1.14,1.14,0,0,0-.19-.7.65.65,0,0,0-.54-.23.91.91,0,0,0-.69.28,1.09,1.09,0,0,0-.25.76v1.85h-.54V13.16h.54v.51a1.37,1.37,0,0,1,.46-.44,1.27,1.27,0,0,1,.6-.15,1,1,0,0,1,.85.36A1.51,1.51,0,0,1,176.54,14.46Z"/><path d="M178.15,12.23v.93h1.11v.42h-1.11v1.78a.84.84,0,0,0,.1.52.64.64,0,0,0,.45.11h.56v.45h-.56a1.25,1.25,0,0,1-.86-.23,1.19,1.19,0,0,1-.23-.85V13.58h-.4v-.42h.4v-.93Z"/><path d="M185.17,12.4V13a2.36,2.36,0,0,0-.64-.42,1.9,1.9,0,0,0-.71-.13,1.44,1.44,0,0,0-1.16.46,2,2,0,0,0-.39,1.32,2,2,0,0,0,.39,1.32,1.44,1.44,0,0,0,1.16.46,1.73,1.73,0,0,0,.71-.14,2.11,2.11,0,0,0,.64-.41v.62a2.48,2.48,0,0,1-.66.31,2.86,2.86,0,0,1-.73.1,2.09,2.09,0,0,1-1.57-.6,2.31,2.31,0,0,1-.57-1.66,2.32,2.32,0,0,1,.57-1.66,2.06,2.06,0,0,1,1.57-.61,2.94,2.94,0,0,1,.74.1A2.59,2.59,0,0,1,185.17,12.4Z"/><path d="M187.33,13.08a1.42,1.42,0,0,1,1.11.46,1.87,1.87,0,0,1,.4,1.26,1.87,1.87,0,0,1-.4,1.26,1.57,1.57,0,0,1-2.22,0,1.86,1.86,0,0,1-.39-1.26,1.86,1.86,0,0,1,.39-1.26A1.42,1.42,0,0,1,187.33,13.08Zm0,.46a.79.79,0,0,0-.68.34,1.5,1.5,0,0,0-.25.92,1.49,1.49,0,0,0,.24.93.87.87,0,0,0,1.38,0,1.56,1.56,0,0,0,.25-.93,1.59,1.59,0,0,0-.25-.92A.81.81,0,0,0,187.33,13.54Z"/><path d="M190.06,14.8a1.54,1.54,0,0,0,.24.94.76.76,0,0,0,.67.34.79.79,0,0,0,.68-.34,1.61,1.61,0,0,0,.24-.94,1.6,1.6,0,0,0-.24-.93.82.82,0,0,0-.68-.34.79.79,0,0,0-.67.34A1.53,1.53,0,0,0,190.06,14.8Zm1.83-1.14V11.88h.54v4.56h-.54V16a1,1,0,0,1-.43.43,1.32,1.32,0,0,1-.62.14,1.2,1.2,0,0,1-1-.47,1.94,1.94,0,0,1-.37-1.25,1.93,1.93,0,0,1,.37-1.24,1.18,1.18,0,0,1,1-.48,1.21,1.21,0,0,1,.62.15A1.11,1.11,0,0,1,191.89,13.66Z"/><path d="M195.81,14.51a1.09,1.09,0,0,0-.25-.71.84.84,0,0,0-.64-.26,1,1,0,0,0-1,1Zm.54.16v.26h-2.48a1.23,1.23,0,0,0,.34.85,1.15,1.15,0,0,0,.83.29,2.35,2.35,0,0,0,.6-.07,2.38,2.38,0,0,0,.58-.24v.51a2.54,2.54,0,0,1-.59.19,3.18,3.18,0,0,1-.62.06,1.71,1.71,0,0,1-1.25-.45,1.67,1.67,0,0,1-.45-1.24,1.79,1.79,0,0,1,.43-1.27,1.51,1.51,0,0,1,1.18-.48,1.37,1.37,0,0,1,1.05.43A1.71,1.71,0,0,1,196.35,14.67Z"/><polyline class="cls-58" points="143.38 23.16 149.38 23.16 155.38 23.16"/><path d="M160.77,20.88H162a2.75,2.75,0,0,1,1.86.53,2.08,2.08,0,0,1,.6,1.65,2.16,2.16,0,0,1-.6,1.67,2.77,2.77,0,0,1-1.86.52h-1.22Zm.59.49v3.4h.72a1.8,1.8,0,0,0,1.32-.41,1.77,1.77,0,0,0,.42-1.3,1.76,1.76,0,0,0-.42-1.29,1.85,1.85,0,0,0-1.32-.4Z"/><path d="M167.63,23.32a1.09,1.09,0,0,0-.24-.71.85.85,0,0,0-.64-.26,1,1,0,0,0-.72.26,1.1,1.1,0,0,0-.32.71Zm.54.16v.26H165.7a1.23,1.23,0,0,0,.33.85,1.13,1.13,0,0,0,.84.29,2.46,2.46,0,0,0,.6-.07,2.8,2.8,0,0,0,.58-.23v.51a2.45,2.45,0,0,1-.6.18,3.15,3.15,0,0,1-.61.06,1.69,1.69,0,0,1-1.25-.45,1.63,1.63,0,0,1-.46-1.23,1.87,1.87,0,0,1,.43-1.28,1.56,1.56,0,0,1,1.18-.48,1.37,1.37,0,0,1,1,.43A1.71,1.71,0,0,1,168.17,23.48Z"/><path d="M171.79,23.27v2h-.54v-2a1.09,1.09,0,0,0-.19-.69.63.63,0,0,0-.54-.24.91.91,0,0,0-.69.28,1.09,1.09,0,0,0-.25.76v1.85H169V22h.54v.51A1.26,1.26,0,0,1,170,22a1.34,1.34,0,0,1,.61-.15,1,1,0,0,1,.85.36A1.57,1.57,0,0,1,171.79,23.27Z"/><path d="M175,22.07v.51a3.8,3.8,0,0,0-.47-.18,3,3,0,0,0-.51-.06,1.23,1.23,0,0,0-.61.13.41.41,0,0,0-.19.37.33.33,0,0,0,.14.29,1.69,1.69,0,0,0,.58.2l.18.05a1.81,1.81,0,0,1,.82.34.88.88,0,0,1,.24.63.86.86,0,0,1-.36.72,1.65,1.65,0,0,1-1,.26,3.51,3.51,0,0,1-.55,0,2.92,2.92,0,0,1-.6-.15v-.55a3.12,3.12,0,0,0,.59.23,2.24,2.24,0,0,0,.57.08,1.08,1.08,0,0,0,.59-.13.42.42,0,0,0,.21-.37.41.41,0,0,0-.15-.33,1.76,1.76,0,0,0-.65-.23l-.19,0a1.47,1.47,0,0,1-.72-.32.78.78,0,0,1-.23-.6.84.84,0,0,1,.33-.71,1.47,1.47,0,0,1,.93-.26,3.45,3.45,0,0,1,.57.05A2.42,2.42,0,0,1,175,22.07Z"/><path d="M178.25,23.32a1.09,1.09,0,0,0-.24-.71.85.85,0,0,0-.64-.26,1,1,0,0,0-.72.26,1.1,1.1,0,0,0-.32.71Zm.54.16v.26h-2.47a1.23,1.23,0,0,0,.33.85,1.13,1.13,0,0,0,.84.29,2.46,2.46,0,0,0,.6-.07,2.8,2.8,0,0,0,.58-.23v.51a2.45,2.45,0,0,1-.6.18,3.15,3.15,0,0,1-.61.06,1.69,1.69,0,0,1-1.25-.45,1.63,1.63,0,0,1-.46-1.23,1.87,1.87,0,0,1,.43-1.28,1.56,1.56,0,0,1,1.18-.48,1.37,1.37,0,0,1,1,.43A1.71,1.71,0,0,1,178.79,23.48Z"/><polygon points="182.74 25.25 181.07 20.88 181.69 20.88 183.07 24.57 184.46 20.88 185.08 20.88 183.41 25.25 182.74 25.25"/><path d="M186.51,21.89a1.4,1.4,0,0,1,1.1.46,1.86,1.86,0,0,1,.4,1.27,1.82,1.82,0,0,1-.4,1.26,1.58,1.58,0,0,1-2.21,0,1.82,1.82,0,0,1-.4-1.26,1.86,1.86,0,0,1,.4-1.27A1.4,1.4,0,0,1,186.51,21.89Zm0,.46a.81.81,0,0,0-.69.34,1.6,1.6,0,0,0-.25.93,1.53,1.53,0,0,0,.25.93.88.88,0,0,0,1.37,0,1.85,1.85,0,0,0,0-1.86A.79.79,0,0,0,186.51,22.35Z"/><polygon points="191.47 21.97 190.28 23.57 191.53 25.25 190.89 25.25 189.94 23.96 188.98 25.25 188.35 25.25 189.62 23.54 188.45 21.97 189.09 21.97 189.96 23.14 190.83 21.97 191.47 21.97"/><path d="M194.38,23.32a1.09,1.09,0,0,0-.24-.71.85.85,0,0,0-.64-.26,1,1,0,0,0-.72.26,1.1,1.1,0,0,0-.32.71Zm.54.16v.26h-2.47a1.23,1.23,0,0,0,.33.85,1.13,1.13,0,0,0,.84.29,2.46,2.46,0,0,0,.6-.07,2.8,2.8,0,0,0,.58-.23v.51a2.45,2.45,0,0,1-.6.18,3.15,3.15,0,0,1-.61.06,1.69,1.69,0,0,1-1.25-.45,1.63,1.63,0,0,1-.46-1.23,1.87,1.87,0,0,1,.43-1.28,1.56,1.56,0,0,1,1.18-.48,1.37,1.37,0,0,1,1,.43A1.71,1.71,0,0,1,194.92,23.48Z"/><rect x="195.81" y="20.69" width="0.54" height="4.56"/><path d="M202.39,24.63V23.45h-1V23H203v1.88a2.53,2.53,0,0,1-.76.36,3.17,3.17,0,0,1-.88.12,2.15,2.15,0,0,1-1.61-.59,2.34,2.34,0,0,1-.58-1.67,2.35,2.35,0,0,1,.58-1.67,2.16,2.16,0,0,1,1.61-.6,3.1,3.1,0,0,1,.81.11,2.39,2.39,0,0,1,.71.31v.63a2.66,2.66,0,0,0-.7-.42,2.23,2.23,0,0,0-.77-.14,1.53,1.53,0,0,0-1.21.45,1.92,1.92,0,0,0-.4,1.33,1.93,1.93,0,0,0,.4,1.34,1.52,1.52,0,0,0,1.21.44,3,3,0,0,0,.55-.05A1.5,1.5,0,0,0,202.39,24.63Z"/><path d="M205.93,22.48a.64.64,0,0,0-.19-.08l-.24,0a.88.88,0,0,0-.7.29,1.28,1.28,0,0,0-.25.86v1.72H204V22h.54v.51A1,1,0,0,1,205,22a1.36,1.36,0,0,1,.67-.15h.12l.15,0Z"/><path d="M206.5,20.69H207v.69h-.54Zm0,1.28H207v3.28h-.54Z"/><path d="M208.49,23.62a1.6,1.6,0,0,0,.24.93.76.76,0,0,0,.67.34.79.79,0,0,0,.68-.34,1.6,1.6,0,0,0,.25-.93,1.58,1.58,0,0,0-.25-.93.8.8,0,0,0-.68-.35.77.77,0,0,0-.67.35A1.58,1.58,0,0,0,208.49,23.62Zm1.84-1.15V20.69h.54v4.56h-.54v-.49a1.07,1.07,0,0,1-.44.43,1.28,1.28,0,0,1-.61.14,1.19,1.19,0,0,1-1-.47,1.93,1.93,0,0,1-.37-1.24,2,2,0,0,1,.37-1.25,1.23,1.23,0,0,1,1-.48,1.17,1.17,0,0,1,.61.15A1.13,1.13,0,0,1,210.33,22.47Z"/><polyline class="cls-59" points="143.38 31.97 149.38 31.97 155.38 31.97"/><path d="M163.39,29.84v.57a6.53,6.53,0,0,0-.63-.24,3.15,3.15,0,0,0-.58-.07,1.32,1.32,0,0,0-.75.18.65.65,0,0,0-.26.54.51.51,0,0,0,.18.43,1.32,1.32,0,0,0,.66.24l.36.08a1.83,1.83,0,0,1,1,.44,1.18,1.18,0,0,1,.32.85,1.13,1.13,0,0,1-.43,1,2,2,0,0,1-1.25.33,4.27,4.27,0,0,1-1.38-.27v-.62a3.27,3.27,0,0,0,.7.31,2.29,2.29,0,0,0,.68.1,1.25,1.25,0,0,0,.78-.2.72.72,0,0,0,.08-1.07,1.36,1.36,0,0,0-.65-.27l-.36-.07a1.87,1.87,0,0,1-1-.42,1,1,0,0,1-.29-.78A1.09,1.09,0,0,1,161,30a1.72,1.72,0,0,1,1.12-.33,3.41,3.41,0,0,1,.63.05A6.28,6.28,0,0,1,163.39,29.84Z"/><path d="M166.91,32.43a1.58,1.58,0,0,0-.24-.93.84.84,0,0,0-1.35,0,1.58,1.58,0,0,0-.24.93,1.61,1.61,0,0,0,.24.94.86.86,0,0,0,1.35,0A1.61,1.61,0,0,0,166.91,32.43Zm-1.83,1.15v1.73h-.54V30.79h.54v.49a1.16,1.16,0,0,1,.42-.43,1.39,1.39,0,0,1,.63-.14,1.2,1.2,0,0,1,1,.47,2.3,2.3,0,0,1,0,2.5,1.2,1.2,0,0,1-1,.47,1.39,1.39,0,0,1-.63-.14A1.09,1.09,0,0,1,165.08,33.58Z"/><path d="M170.93,32.2v1.87h-.54v-.5a1.14,1.14,0,0,1-.46.44,1.51,1.51,0,0,1-.67.14,1.08,1.08,0,0,1-.8-.28,1,1,0,0,1-.3-.76,1,1,0,0,1,.37-.83,1.82,1.82,0,0,1,1.11-.28h.75v-.06a.72.72,0,0,0-.24-.57,1.07,1.07,0,0,0-.69-.21,2,2,0,0,0-.55.08,2.23,2.23,0,0,0-.51.19v-.49a3.17,3.17,0,0,1,1.12-.23,1.38,1.38,0,0,1,1.06.37A1.6,1.6,0,0,1,170.93,32.2Zm-1.07.22a1.94,1.94,0,0,0-.91.15.56.56,0,0,0-.25.51.54.54,0,0,0,.19.45.7.7,0,0,0,.51.17.88.88,0,0,0,.72-.32,1.25,1.25,0,0,0,.27-.84v-.12Z"/><path d="M174,31.29a.7.7,0,0,0-.2-.08l-.24,0a.85.85,0,0,0-.7.3,1.27,1.27,0,0,0-.24.85v1.73H172V30.79h.54v.51a1,1,0,0,1,.43-.45,1.51,1.51,0,0,1,.67-.14h.13l.15,0Z"/><path d="M176.6,30.88v.51a2.64,2.64,0,0,0-.47-.17,2.22,2.22,0,0,0-.51-.06,1.24,1.24,0,0,0-.61.12.42.42,0,0,0-.19.37.32.32,0,0,0,.14.29,1.47,1.47,0,0,0,.58.21l.18,0a1.7,1.7,0,0,1,.82.35.85.85,0,0,1,.24.62.83.83,0,0,1-.36.72,1.65,1.65,0,0,1-1,.27,3.51,3.51,0,0,1-.55,0,3.76,3.76,0,0,1-.6-.15v-.56a2.18,2.18,0,0,0,.59.23,1.87,1.87,0,0,0,.57.08,1.18,1.18,0,0,0,.59-.12.44.44,0,0,0,.21-.38.43.43,0,0,0-.15-.33,1.76,1.76,0,0,0-.65-.23l-.19,0a1.38,1.38,0,0,1-.72-.33.78.78,0,0,1-.23-.6.85.85,0,0,1,.33-.71,1.47,1.47,0,0,1,.93-.25,3.45,3.45,0,0,1,.57.05A3.37,3.37,0,0,1,176.6,30.88Z"/><path d="M179.9,32.14a1.07,1.07,0,0,0-.24-.71.82.82,0,0,0-.64-.27,1,1,0,0,0-.72.26,1.1,1.1,0,0,0-.32.72Zm.54.15v.27H178a1.23,1.23,0,0,0,.33.85,1.17,1.17,0,0,0,.84.29,2.47,2.47,0,0,0,.6-.08,2,2,0,0,0,.58-.23v.51a3,3,0,0,1-.6.19,4.2,4.2,0,0,1-.61.06,1.69,1.69,0,0,1-1.25-.45,1.65,1.65,0,0,1-.46-1.24,1.88,1.88,0,0,1,.43-1.28,1.55,1.55,0,0,1,1.18-.47,1.36,1.36,0,0,1,1.05.42A1.72,1.72,0,0,1,180.44,32.29Z"/><polygon points="184.39 34.07 182.72 29.69 183.34 29.69 184.72 33.38 186.11 29.69 186.73 29.69 185.06 34.07 184.39 34.07"/><path d="M188.16,30.71a1.4,1.4,0,0,1,1.1.45,1.86,1.86,0,0,1,.4,1.27,1.82,1.82,0,0,1-.4,1.26,1.56,1.56,0,0,1-2.21,0,1.82,1.82,0,0,1-.4-1.26,1.86,1.86,0,0,1,.4-1.27A1.39,1.39,0,0,1,188.16,30.71Zm0,.45a.82.82,0,0,0-.69.35,1.55,1.55,0,0,0-.25.92,1.51,1.51,0,0,0,.25.93.86.86,0,0,0,1.37,0,1.84,1.84,0,0,0,0-1.85A.8.8,0,0,0,188.16,31.16Z"/><polygon points="193.12 30.79 191.93 32.38 193.18 34.07 192.54 34.07 191.59 32.78 190.63 34.07 190 34.07 191.27 32.35 190.1 30.79 190.74 30.79 191.61 31.95 192.48 30.79 193.12 30.79"/><path d="M196,32.14a1.07,1.07,0,0,0-.24-.71.82.82,0,0,0-.64-.27,1,1,0,0,0-.72.26,1.1,1.1,0,0,0-.32.72Zm.54.15v.27H194.1a1.23,1.23,0,0,0,.33.85,1.17,1.17,0,0,0,.84.29,2.47,2.47,0,0,0,.6-.08,2,2,0,0,0,.58-.23v.51a3,3,0,0,1-.6.19,4.2,4.2,0,0,1-.61.06A1.69,1.69,0,0,1,194,33.7a1.65,1.65,0,0,1-.46-1.24,1.88,1.88,0,0,1,.43-1.28,1.55,1.55,0,0,1,1.18-.47,1.36,1.36,0,0,1,1.05.42A1.72,1.72,0,0,1,196.57,32.29Z"/><rect x="197.46" y="29.51" width="0.54" height="4.56"/><path d="M204,33.44V32.27h-1v-.49h1.56v1.88a2.34,2.34,0,0,1-.76.37,3.59,3.59,0,0,1-.88.12,2.12,2.12,0,0,1-1.61-.6,2.3,2.3,0,0,1-.58-1.67,2.33,2.33,0,0,1,.58-1.66,2.12,2.12,0,0,1,1.61-.6,3.1,3.1,0,0,1,.81.1,3,3,0,0,1,.71.31v.63a2.38,2.38,0,0,0-.7-.41,2,2,0,0,0-.77-.15,1.53,1.53,0,0,0-1.21.45,2.43,2.43,0,0,0,0,2.67,1.53,1.53,0,0,0,1.21.45,2.32,2.32,0,0,0,.55-.06A1.28,1.28,0,0,0,204,33.44Z"/><path d="M207.58,31.29a.64.64,0,0,0-.19-.08l-.24,0a.85.85,0,0,0-.7.3,1.27,1.27,0,0,0-.25.85v1.73h-.54V30.79h.54v.51a1.12,1.12,0,0,1,.44-.45,1.48,1.48,0,0,1,.67-.14h.12l.15,0Z"/><path d="M208.15,29.51h.54v.68h-.54Zm0,1.28h.54v3.28h-.54Z"/><path d="M210.14,32.43a1.61,1.61,0,0,0,.24.94.78.78,0,0,0,.67.33.81.81,0,0,0,.68-.33,1.61,1.61,0,0,0,.25-.94,1.58,1.58,0,0,0-.25-.93.79.79,0,0,0-.68-.34.76.76,0,0,0-.67.34A1.58,1.58,0,0,0,210.14,32.43ZM212,31.28V29.51h.54v4.56H212v-.49a1.13,1.13,0,0,1-.44.43,1.28,1.28,0,0,1-.61.14,1.22,1.22,0,0,1-1-.47,2.3,2.3,0,0,1,0-2.5,1.22,1.22,0,0,1,1-.47,1.28,1.28,0,0,1,.61.14A1.21,1.21,0,0,1,212,31.28Z"/></svg>